<svg width="100" height="100" viewBox="0 0 100 100" fill="none" xmlns="http://www.w3.org/2000/svg">
  <path d="M64.6147 92.8583C62.0259 92.8583 59.9272 90.7597 59.9272 88.1708V83.8624L55.0501 78.9852C53.2196 77.1546 53.2196 74.1868 55.0501 72.3562C56.8808 70.5255 59.8485 70.5255 61.6792 72.3562L67.9292 78.6062C68.8083 79.4853 69.3021 80.6774 69.3021 81.9208V88.1708C69.3022 90.7595 67.2036 92.8583 64.6147 92.8583Z" fill="#463C4B"/>
  <path d="M77.1147 67.8583C77.1147 65.2694 75.0161 63.1708 72.4272 63.1708H64.6147C62.0259 63.1708 59.9272 65.2694 59.9272 67.8583V70.9833C59.9272 73.5721 62.0259 75.6708 64.6147 75.6708H72.4272C75.0161 75.6708 77.1147 73.5721 77.1147 70.9833H71.2327C71.9753 70.154 72.4272 69.0591 72.4272 67.8583H77.1147Z" fill="#463C4B"/>
  <path d="M67.7397 63.1708H64.6147C62.0259 63.1708 59.9272 65.2694 59.9272 67.8583C59.9272 70.4471 62.0259 72.5458 64.6147 72.5458C67.2036 72.5458 69.3022 70.4471 69.3022 67.8583H72.4272C72.4272 65.2694 70.3286 63.1708 67.7397 63.1708Z" fill="#555A6E"/>
  <path d="M64.6147 69.4208C65.4777 69.4208 66.1772 68.7212 66.1772 67.8583C66.1772 66.9953 65.4777 66.2958 64.6147 66.2958C63.7518 66.2958 63.0522 66.9953 63.0522 67.8583C63.0522 68.7212 63.7518 69.4208 64.6147 69.4208Z" fill="#5AD7FF"/>
  <path d="M45.8647 92.8583C43.2759 92.8583 41.1772 90.7597 41.1772 88.1708V83.8624L36.3001 78.9852C34.4696 77.1546 34.4696 74.1868 36.3001 72.3562C38.1308 70.5255 41.0985 70.5255 42.9292 72.3562L49.1792 78.6062C50.0583 79.4853 50.5521 80.6774 50.5521 81.9208V88.1708C50.5522 90.7595 48.4536 92.8583 45.8647 92.8583Z" fill="#463C4B"/>
  <path d="M41.1772 38.1708H59.9272V41.2958H41.1772V38.1708Z" fill="#463C4B"/>
  <path d="M66.1772 75.6708H34.9272C33.2013 75.6708 31.8022 74.2718 31.8022 72.5458V44.4208C31.8022 42.6948 33.2013 41.2958 34.9272 41.2958H66.1772C67.9032 41.2958 69.3022 42.6948 69.3022 44.4208V72.5458C69.3022 74.2716 67.9032 75.6708 66.1772 75.6708Z" fill="#A5C3DC"/>
  <path d="M44.3022 75.6708H34.9272C33.2013 75.6708 31.8022 74.2718 31.8022 72.5458V44.4208C31.8022 42.6948 33.2013 41.2958 34.9272 41.2958H44.3022C46.0282 41.2958 47.4272 42.6948 47.4272 44.4208V72.5458C47.4272 74.2716 46.0282 75.6708 44.3022 75.6708Z" fill="#D7E6F0"/>
  <path d="M42.7397 70.9833H38.0522C34.606 70.9833 31.8022 68.1796 31.8022 64.7333V49.1083H38.0522V64.7333H42.7397V70.9833Z" fill="#463C4B"/>
  <path d="M59.9272 47.5458H56.8022C55.9394 47.5458 55.2397 48.2454 55.2397 49.1083V67.8583C55.2397 68.7212 55.9394 69.4208 56.8022 69.4208H59.9272C60.7901 69.4208 61.4897 68.7212 61.4897 67.8583V49.1083C61.4897 48.2452 60.7903 47.5458 59.9272 47.5458Z" fill="#463C4B"/>
  <path d="M34.9272 56.9208C39.242 56.9208 42.7397 53.423 42.7397 49.1083C42.7397 44.7936 39.242 41.2958 34.9272 41.2958C30.6125 41.2958 27.1147 44.7936 27.1147 49.1083C27.1147 53.423 30.6125 56.9208 34.9272 56.9208Z" fill="#555A6E"/>
  <path d="M32.5835 49.1083C33.8779 49.1083 34.9272 48.0589 34.9272 46.7645C34.9272 45.4701 33.8779 44.4208 32.5835 44.4208C31.2891 44.4208 30.2397 45.4701 30.2397 46.7645C30.2397 48.0589 31.2891 49.1083 32.5835 49.1083Z" fill="#73788C"/>
  <path d="M55.2397 67.8583C55.2397 65.2694 53.1411 63.1708 50.5522 63.1708H42.7397C40.1509 63.1708 38.0522 65.2694 38.0522 67.8583V70.9833C38.0522 73.5721 40.1509 75.6708 42.7397 75.6708H50.5522C53.1411 75.6708 55.2397 73.5721 55.2397 70.9833H49.3577C50.1001 70.154 50.5522 69.0591 50.5522 67.8583H55.2397Z" fill="#463C4B"/>
  <path d="M45.8647 63.1708H42.7397C40.1509 63.1708 38.0522 65.2694 38.0522 67.8583C38.0522 70.4471 40.1509 72.5458 42.7397 72.5458C45.3286 72.5458 47.4272 70.4471 47.4272 67.8583H50.5522C50.5522 65.2694 48.4536 63.1708 45.8647 63.1708Z" fill="#555A6E"/>
  <path d="M42.7397 69.4208C43.6027 69.4208 44.3022 68.7212 44.3022 67.8583C44.3022 66.9953 43.6027 66.2958 42.7397 66.2958C41.8768 66.2958 41.1772 66.9953 41.1772 67.8583C41.1772 68.7212 41.8768 69.4208 42.7397 69.4208Z" fill="#FFCD05"/>
  <path d="M58.3647 63.1708C57.5019 63.1708 56.8022 63.8704 56.8022 64.7333V66.2958C56.8022 67.1587 57.5019 67.8583 58.3647 67.8583C59.2276 67.8583 59.9272 67.1587 59.9272 66.2958V64.7333C59.9272 63.8702 59.2278 63.1708 58.3647 63.1708Z" fill="#FFCD05"/>
  <path d="M53.6772 94.4208H38.0522V88.1708C38.0522 86.4448 39.4513 85.0458 41.1772 85.0458H50.5522C52.2782 85.0458 53.6772 86.4448 53.6772 88.1708V94.4208Z" fill="#A5C3DC"/>
  <path d="M44.3022 94.4208H38.0522V88.1708C38.0522 86.4448 39.4513 85.0458 41.1772 85.0458C42.9032 85.0458 44.3022 86.4448 44.3022 88.1708V94.4208Z" fill="#D7E6F0"/>
  <path d="M56.8022 97.5458H39.6147C38.7519 97.5458 38.0522 96.8462 38.0522 95.9833V94.4208H53.6772C55.4032 94.4208 56.8022 95.8198 56.8022 97.5458Z" fill="#463C4B"/>
  <path d="M41.1772 89.7333C42.0402 89.7333 42.7397 89.0337 42.7397 88.1708C42.7397 87.3078 42.0402 86.6083 41.1772 86.6083C40.3143 86.6083 39.6147 87.3078 39.6147 88.1708C39.6147 89.0337 40.3143 89.7333 41.1772 89.7333Z" fill="#A5C3DC"/>
  <path d="M72.4272 94.4208H56.8022V88.1708C56.8022 86.4448 58.2013 85.0458 59.9272 85.0458H69.3022C71.0282 85.0458 72.4272 86.4448 72.4272 88.1708V94.4208Z" fill="#A5C3DC"/>
  <path d="M63.0522 94.4208H56.8022V88.1708C56.8022 86.4448 58.2013 85.0458 59.9272 85.0458C61.6532 85.0458 63.0522 86.4448 63.0522 88.1708V94.4208Z" fill="#D7E6F0"/>
  <path d="M75.5522 97.5458H58.3647C57.5019 97.5458 56.8022 96.8462 56.8022 95.9833V94.4208H72.4272C74.1532 94.4208 75.5522 95.8198 75.5522 97.5458Z" fill="#463C4B"/>
  <path d="M59.9272 89.7333C60.7902 89.7333 61.4897 89.0337 61.4897 88.1708C61.4897 87.3078 60.7902 86.6083 59.9272 86.6083C59.0643 86.6083 58.3647 87.3078 58.3647 88.1708C58.3647 89.0337 59.0643 89.7333 59.9272 89.7333Z" fill="#A5C3DC"/>
  <path d="M66.1772 38.1708H34.9272C33.2013 38.1708 31.8022 36.7718 31.8022 35.0458V16.2958C31.8022 14.5698 33.2013 13.1708 34.9272 13.1708H66.1772C67.9032 13.1708 69.3022 14.5698 69.3022 16.2958V35.0458C69.3022 36.7716 67.9032 38.1708 66.1772 38.1708Z" fill="#A5C3DC"/>
  <path d="M44.3022 38.1708H34.9272C33.2013 38.1708 31.8022 36.7718 31.8022 35.0458V16.2958C31.8022 14.5698 33.2013 13.1708 34.9272 13.1708H44.3022C46.0282 13.1708 47.4272 14.5698 47.4272 16.2958V35.0458C47.4272 36.7716 46.0282 38.1708 44.3022 38.1708Z" fill="#D7E6F0"/>
  <path d="M47.4272 31.9208V19.4208C47.4272 17.6948 48.8263 16.2958 50.5522 16.2958H53.6772L55.0108 17.6294C55.1573 17.7759 55.3562 17.8583 55.5632 17.8583H61.1659C61.3731 17.8583 61.5718 17.7761 61.7183 17.6294L63.0519 16.2958H66.1769C67.9028 16.2958 69.3019 17.6948 69.3019 19.4208V31.9208C69.3019 33.6468 67.9028 35.0458 66.1769 35.0458H50.5519C48.8265 35.0458 47.4272 33.6466 47.4272 31.9208Z" fill="#555A6E"/>
  <path d="M62.271 31.9208H54.4585C54.0271 31.9208 53.6772 31.571 53.6772 31.1395V29.577C53.6772 29.1456 54.0271 28.7958 54.4585 28.7958H62.271C62.7024 28.7958 63.0522 29.1456 63.0522 29.577V31.1395C63.0522 31.571 62.7026 31.9208 62.271 31.9208Z" fill="#FFCD05"/>
  <path d="M39.6147 30.3583C42.2036 30.3583 44.3022 28.2596 44.3022 25.6708C44.3022 23.0819 42.2036 20.9833 39.6147 20.9833C37.0259 20.9833 34.9272 23.0819 34.9272 25.6708C34.9272 28.2596 37.0259 30.3583 39.6147 30.3583Z" fill="#A5C3DC"/>
  <path d="M65.7194 23.5875L66.7296 22.5773C67.0349 22.2722 67.0349 21.7775 66.7296 21.4726C66.4247 21.1673 65.9296 21.1673 65.6249 21.4726L64.6147 22.4828L63.6046 21.4726C63.2997 21.1673 62.8046 21.1673 62.4999 21.4726C62.1946 21.7777 62.1946 22.2724 62.4999 22.5773L63.5101 23.5875L62.4997 24.5974C62.1944 24.9025 62.1944 25.3972 62.4997 25.7021C62.6521 25.8546 62.8522 25.931 63.0521 25.931C63.2519 25.931 63.4521 25.8546 63.6044 25.7021L64.6146 24.6919L65.6247 25.7021C65.7771 25.8546 65.9772 25.931 66.1771 25.931C66.3769 25.931 66.5771 25.8546 66.7294 25.7021C67.0347 25.397 67.0347 24.9023 66.7294 24.5974L65.7194 23.5875Z" fill="#FFCD05"/>
  <path d="M54.2297 21.4724C53.9248 21.1671 53.4297 21.1671 53.125 21.4724L52.1148 22.4825L51.1047 21.4724C50.7998 21.1671 50.3047 21.1671 50 21.4724C49.6949 21.7774 49.6949 22.2722 50 22.5771L51.0102 23.5872L49.9998 24.5974C49.6947 24.9024 49.6947 25.3972 49.9998 25.702C50.1521 25.8546 50.3523 25.931 50.5521 25.931C50.752 25.931 50.9521 25.8546 51.1045 25.702L52.1146 24.6919L53.1248 25.702C53.2771 25.8546 53.4773 25.931 53.6771 25.931C53.877 25.931 54.0771 25.8546 54.2295 25.702C54.5348 25.397 54.5348 24.9022 54.2295 24.5974L53.2193 23.5872L54.2295 22.5771C54.5348 22.2722 54.5348 21.7774 54.2297 21.4724Z" fill="#FFCD05"/>
  <path d="M91.8044 26.3889L88.1173 22.7018L95.2214 15.5977C95.8621 14.9571 95.0816 13.9223 94.2896 14.3624L80.1837 22.1989C79.73 22.451 79.6437 23.0672 80.0107 23.4342L83.6978 27.1213L76.5937 34.2254C75.9531 34.8661 76.7335 35.9008 77.5255 35.4608L91.6314 27.6243C92.0851 27.3721 92.1714 26.7559 91.8044 26.3889Z" fill="#F58721"/>
  <path d="M16.6743 19.0147L12.9872 22.7018L5.88312 15.5975C5.24249 14.9569 4.20772 15.7373 4.64776 16.5293L12.4843 30.6352C12.7364 31.0889 13.3526 31.1752 13.7196 30.8082L17.4067 27.1211L24.5109 34.2252C25.1515 34.8658 26.1862 34.0854 25.7462 33.2934L17.9097 19.1877C17.6577 18.734 17.0413 18.6477 16.6743 19.0147Z" fill="#F58721"/>
  <path d="M70.8647 11.8293H67.7397C66.8769 11.8293 66.1772 11.1297 66.1772 10.2668C66.1772 9.40396 66.8769 8.70435 67.7397 8.70435H70.8647C71.7276 8.70435 72.4272 9.40396 72.4272 10.2668C72.4272 11.1297 71.7276 11.8293 70.8647 11.8293Z" fill="#F58721"/>
  <path d="M80.2397 11.8293H77.1147C76.2519 11.8293 75.5522 11.1297 75.5522 10.2668C75.5522 9.40396 76.2519 8.70435 77.1147 8.70435H80.2397C81.1026 8.70435 81.8022 9.40396 81.8022 10.2668C81.8022 11.1297 81.1026 11.8293 80.2397 11.8293Z" fill="#F58721"/>
  <path d="M73.9897 18.0793C73.1269 18.0793 72.4272 17.3797 72.4272 16.5168V13.3918C72.4272 12.529 73.1269 11.8293 73.9897 11.8293C74.8526 11.8293 75.5522 12.529 75.5522 13.3918V16.5168C75.5522 17.3797 74.8526 18.0793 73.9897 18.0793Z" fill="#F58721"/>
  <path d="M73.9897 8.70435C73.1269 8.70435 72.4272 8.00474 72.4272 7.14185V4.01685C72.4272 3.15396 73.1269 2.45435 73.9897 2.45435C74.8526 2.45435 75.5522 3.15396 75.5522 4.01685V7.14185C75.5522 8.00474 74.8526 8.70435 73.9897 8.70435Z" fill="#F58721"/>
  <path d="M23.9897 11.8293H20.8647C20.0019 11.8293 19.3022 11.1297 19.3022 10.2668C19.3022 9.40396 20.0019 8.70435 20.8647 8.70435H23.9897C24.8526 8.70435 25.5522 9.40396 25.5522 10.2668C25.5522 11.1297 24.8526 11.8293 23.9897 11.8293Z" fill="#F58721"/>
  <path d="M33.3647 11.8293H30.2397C29.3769 11.8293 28.6772 11.1297 28.6772 10.2668C28.6772 9.40396 29.3769 8.70435 30.2397 8.70435H33.3647C34.2276 8.70435 34.9272 9.40396 34.9272 10.2668C34.9272 11.1297 34.2276 11.8293 33.3647 11.8293Z" fill="#F58721"/>
  <path d="M27.1147 18.0793C26.2519 18.0793 25.5522 17.3797 25.5522 16.5168V13.3918C25.5522 12.529 26.2519 11.8293 27.1147 11.8293C27.9776 11.8293 28.6772 12.529 28.6772 13.3918V16.5168C28.6772 17.3797 27.9776 18.0793 27.1147 18.0793Z" fill="#F58721"/>
  <path d="M27.1147 8.70435C26.2519 8.70435 25.5522 8.00474 25.5522 7.14185V4.01685C25.5522 3.15396 26.2519 2.45435 27.1147 2.45435C27.9776 2.45435 28.6772 3.15396 28.6772 4.01685V7.14185C28.6772 8.00474 27.9776 8.70435 27.1147 8.70435Z" fill="#F58721"/>
</svg>
