<svg width="100" height="100" viewBox="0 0 100 100" fill="none" xmlns="http://www.w3.org/2000/svg">
    <path
        d="M64.6152 92.8582C62.0264 92.8582 59.9277 90.7596 59.9277 88.1707V83.8623L55.0506 78.9851C53.2201 77.1545 53.2201 74.1867 55.0506 72.356C56.8812 70.5254 59.849 70.5254 61.6797 72.356L67.9297 78.606C68.8088 79.4851 69.3025 80.6773 69.3025 81.9207V88.1707C69.3027 90.7594 67.2041 92.8582 64.6152 92.8582Z"
        fill="#463C4B" />
    <path
        d="M77.1152 67.8582C77.1152 65.2693 75.0166 63.1707 72.4277 63.1707H64.6152C62.0264 63.1707 59.9277 65.2693 59.9277 67.8582V70.9832C59.9277 73.5721 62.0264 75.6707 64.6152 75.6707H72.4277C75.0166 75.6707 77.1152 73.5721 77.1152 70.9832H71.2332C71.9758 70.1539 72.4277 69.059 72.4277 67.8582H77.1152Z"
        fill="#463C4B" />
    <path
        d="M67.7402 63.1707H64.6152C62.0264 63.1707 59.9277 65.2693 59.9277 67.8582C59.9277 70.4471 62.0264 72.5457 64.6152 72.5457C67.2041 72.5457 69.3027 70.4471 69.3027 67.8582H72.4277C72.4277 65.2693 70.3291 63.1707 67.7402 63.1707Z"
        fill="#555A6E" />
    <path
        d="M64.6152 69.4207C65.4782 69.4207 66.1777 68.7211 66.1777 67.8582C66.1777 66.9952 65.4782 66.2957 64.6152 66.2957C63.7523 66.2957 63.0527 66.9952 63.0527 67.8582C63.0527 68.7211 63.7523 69.4207 64.6152 69.4207Z"
        fill="#5AD7FF" />
    <path
        d="M45.8652 92.8582C43.2764 92.8582 41.1777 90.7596 41.1777 88.1707V83.8623L36.3006 78.9851C34.4701 77.1545 34.4701 74.1867 36.3006 72.356C38.1312 70.5254 41.099 70.5254 42.9297 72.356L49.1797 78.606C50.0588 79.4851 50.5525 80.6773 50.5525 81.9207V88.1707C50.5527 90.7594 48.4541 92.8582 45.8652 92.8582Z"
        fill="#463C4B" />
    <path d="M41.1777 38.1707H59.9277V41.2957H41.1777V38.1707Z" fill="#463C4B" />
    <path
        d="M66.1777 75.6707H34.9277C33.2018 75.6707 31.8027 74.2717 31.8027 72.5457V44.4207C31.8027 42.6947 33.2018 41.2957 34.9277 41.2957H66.1777C67.9037 41.2957 69.3027 42.6947 69.3027 44.4207V72.5457C69.3027 74.2715 67.9037 75.6707 66.1777 75.6707Z"
        fill="#F58721" />
    <path
        d="M44.3027 75.6707H34.9277C33.2018 75.6707 31.8027 74.2717 31.8027 72.5457V44.4207C31.8027 42.6947 33.2018 41.2957 34.9277 41.2957H44.3027C46.0287 41.2957 47.4277 42.6947 47.4277 44.4207V72.5457C47.4277 74.2715 46.0287 75.6707 44.3027 75.6707Z"
        fill="#A36832" />
    <path
        d="M42.7402 70.9832H38.0527C34.6064 70.9832 31.8027 68.1795 31.8027 64.7332V49.1082H38.0527V64.7332H42.7402V70.9832Z"
        fill="#463C4B" />
    <path
        d="M59.9277 47.5457H56.8027C55.9398 47.5457 55.2402 48.2453 55.2402 49.1082V67.8582C55.2402 68.7211 55.9398 69.4207 56.8027 69.4207H59.9277C60.7906 69.4207 61.4902 68.7211 61.4902 67.8582V49.1082C61.4902 48.2451 60.7908 47.5457 59.9277 47.5457Z"
        fill="#463C4B" />
    <path
        d="M34.9277 56.9207C39.2425 56.9207 42.7402 53.4229 42.7402 49.1082C42.7402 44.7935 39.2425 41.2957 34.9277 41.2957C30.613 41.2957 27.1152 44.7935 27.1152 49.1082C27.1152 53.4229 30.613 56.9207 34.9277 56.9207Z"
        fill="#555A6E" />
    <path
        d="M32.584 49.1082C33.8784 49.1082 34.9277 48.0589 34.9277 46.7644C34.9277 45.47 33.8784 44.4207 32.584 44.4207C31.2896 44.4207 30.2402 45.47 30.2402 46.7644C30.2402 48.0589 31.2896 49.1082 32.584 49.1082Z"
        fill="#73788C" />
    <path
        d="M55.2402 67.8582C55.2402 65.2693 53.1416 63.1707 50.5527 63.1707H42.7402C40.1514 63.1707 38.0527 65.2693 38.0527 67.8582V70.9832C38.0527 73.5721 40.1514 75.6707 42.7402 75.6707H50.5527C53.1416 75.6707 55.2402 73.5721 55.2402 70.9832H49.3582C50.1006 70.1539 50.5527 69.059 50.5527 67.8582H55.2402Z"
        fill="#463C4B" />
    <path
        d="M45.8652 63.1707H42.7402C40.1514 63.1707 38.0527 65.2693 38.0527 67.8582C38.0527 70.4471 40.1514 72.5457 42.7402 72.5457C45.3291 72.5457 47.4277 70.4471 47.4277 67.8582H50.5527C50.5527 65.2693 48.4541 63.1707 45.8652 63.1707Z"
        fill="#555A6E" />
    <path
        d="M42.7402 69.4207C43.6032 69.4207 44.3027 68.7211 44.3027 67.8582C44.3027 66.9952 43.6032 66.2957 42.7402 66.2957C41.8773 66.2957 41.1777 66.9952 41.1777 67.8582C41.1777 68.7211 41.8773 69.4207 42.7402 69.4207Z"
        fill="#FFCD05" />
    <path
        d="M58.3652 63.1707C57.5023 63.1707 56.8027 63.8703 56.8027 64.7332V66.2957C56.8027 67.1586 57.5023 67.8582 58.3652 67.8582C59.2281 67.8582 59.9277 67.1586 59.9277 66.2957V64.7332C59.9277 63.8701 59.2283 63.1707 58.3652 63.1707Z"
        fill="#FFCD05" />
    <path
        d="M53.6777 94.4207H38.0527V88.1707C38.0527 86.4447 39.4518 85.0457 41.1777 85.0457H50.5527C52.2787 85.0457 53.6777 86.4447 53.6777 88.1707V94.4207Z"
        fill="#F58721" />
    <path
        d="M44.3027 94.4207H38.0527V88.1707C38.0527 86.4447 39.4518 85.0457 41.1777 85.0457C42.9037 85.0457 44.3027 86.4447 44.3027 88.1707V94.4207Z"
        fill="#A36832" />
    <path
        d="M56.8027 97.5457H39.6152C38.7523 97.5457 38.0527 96.8461 38.0527 95.9832V94.4207H53.6777C55.4037 94.4207 56.8027 95.8197 56.8027 97.5457Z"
        fill="#463C4B" />
    <path
        d="M41.1777 89.7332C42.0407 89.7332 42.7402 89.0336 42.7402 88.1707C42.7402 87.3077 42.0407 86.6082 41.1777 86.6082C40.3148 86.6082 39.6152 87.3077 39.6152 88.1707C39.6152 89.0336 40.3148 89.7332 41.1777 89.7332Z"
        fill="#F58721" />
    <path
        d="M72.4277 94.4207H56.8027V88.1707C56.8027 86.4447 58.2018 85.0457 59.9277 85.0457H69.3027C71.0287 85.0457 72.4277 86.4447 72.4277 88.1707V94.4207Z"
        fill="#F58721" />
    <path
        d="M63.0527 94.4207H56.8027V88.1707C56.8027 86.4447 58.2018 85.0457 59.9277 85.0457C61.6537 85.0457 63.0527 86.4447 63.0527 88.1707V94.4207Z"
        fill="#A36832" />
    <path
        d="M75.5527 97.5457H58.3652C57.5023 97.5457 56.8027 96.8461 56.8027 95.9832V94.4207H72.4277C74.1537 94.4207 75.5527 95.8197 75.5527 97.5457Z"
        fill="#463C4B" />
    <path
        d="M59.9277 89.7332C60.7907 89.7332 61.4902 89.0336 61.4902 88.1707C61.4902 87.3077 60.7907 86.6082 59.9277 86.6082C59.0648 86.6082 58.3652 87.3077 58.3652 88.1707C58.3652 89.0336 59.0648 89.7332 59.9277 89.7332Z"
        fill="#F58721" />
    <path
        d="M66.1777 38.1707H34.9277C33.2018 38.1707 31.8027 36.7717 31.8027 35.0457V16.2957C31.8027 14.5697 33.2018 13.1707 34.9277 13.1707H66.1777C67.9037 13.1707 69.3027 14.5697 69.3027 16.2957V35.0457C69.3027 36.7715 67.9037 38.1707 66.1777 38.1707Z"
        fill="#F58721" />
    <path
        d="M44.3027 38.1707H34.9277C33.2018 38.1707 31.8027 36.7717 31.8027 35.0457V16.2957C31.8027 14.5697 33.2018 13.1707 34.9277 13.1707H44.3027C46.0287 13.1707 47.4277 14.5697 47.4277 16.2957V35.0457C47.4277 36.7715 46.0287 38.1707 44.3027 38.1707Z"
        fill="#A36832" />
    <path
        d="M47.4277 31.9207V19.4207C47.4277 17.6947 48.8268 16.2957 50.5527 16.2957H53.6777L55.0113 17.6293C55.1578 17.7758 55.3566 17.8582 55.5637 17.8582H61.1664C61.3736 17.8582 61.5723 17.776 61.7187 17.6293L63.0523 16.2957H66.1773C67.9033 16.2957 69.3023 17.6947 69.3023 19.4207V31.9207C69.3023 33.6467 67.9033 35.0457 66.1773 35.0457H50.5523C48.827 35.0457 47.4277 33.6465 47.4277 31.9207Z"
        fill="#555A6E" />
    <path
        d="M62.2715 31.9207H54.459C54.0275 31.9207 53.6777 31.5709 53.6777 31.1394V29.5769C53.6777 29.1455 54.0275 28.7957 54.459 28.7957H62.2715C62.7029 28.7957 63.0527 29.1455 63.0527 29.5769V31.1394C63.0527 31.5709 62.7031 31.9207 62.2715 31.9207Z"
        fill="#FFCD05" />
    <path
        d="M39.6152 30.3582C42.2041 30.3582 44.3027 28.2595 44.3027 25.6707C44.3027 23.0819 42.2041 20.9832 39.6152 20.9832C37.0264 20.9832 34.9277 23.0819 34.9277 25.6707C34.9277 28.2595 37.0264 30.3582 39.6152 30.3582Z"
        fill="#F58721" />
    <path
        d="M65.7202 23.5873L66.7303 22.5771C67.0356 22.272 67.0356 21.7773 66.7303 21.4724C66.4254 21.1672 65.9303 21.1672 65.6256 21.4724L64.6155 22.4826L63.6053 21.4724C63.3004 21.1672 62.8053 21.1672 62.5006 21.4724C62.1954 21.7775 62.1954 22.2722 62.5006 22.5771L63.5108 23.5873L62.5004 24.5972C62.1952 24.9023 62.1952 25.397 62.5004 25.7019C62.6528 25.8545 62.853 25.9308 63.0528 25.9308C63.2526 25.9308 63.4528 25.8545 63.6051 25.7019L64.6153 24.6918L65.6254 25.7019C65.7778 25.8545 65.978 25.9308 66.1778 25.9308C66.3776 25.9308 66.5778 25.8545 66.7301 25.7019C67.0354 25.3968 67.0354 24.9021 66.7301 24.5972L65.7202 23.5873Z"
        fill="#FFCD05" />
    <path
        d="M54.2302 21.4722C53.9253 21.167 53.4302 21.167 53.1255 21.4722L52.1153 22.4824L51.1052 21.4722C50.8003 21.167 50.3052 21.167 50.0005 21.4722C49.6954 21.7773 49.6954 22.272 50.0005 22.5769L51.0106 23.5871L50.0003 24.5972C49.6952 24.9023 49.6952 25.397 50.0003 25.7019C50.1526 25.8545 50.3528 25.9308 50.5526 25.9308C50.7524 25.9308 50.9526 25.8545 51.105 25.7019L52.1151 24.6918L53.1253 25.7019C53.2776 25.8545 53.4778 25.9308 53.6776 25.9308C53.8774 25.9308 54.0776 25.8545 54.23 25.7019C54.5353 25.3968 54.5353 24.9021 54.23 24.5972L53.2198 23.5871L54.23 22.5769C54.5353 22.272 54.5353 21.7773 54.2302 21.4722Z"
        fill="#FFCD05" />
    <path
        d="M91.8044 26.3889L88.1173 22.7018L95.2214 15.5977C95.8621 14.957 95.0816 13.9223 94.2896 14.3623L80.1837 22.1988C79.73 22.451 79.6437 23.0672 80.0107 23.4342L83.6978 27.1213L76.5937 34.2254C75.9531 34.866 76.7335 35.9008 77.5255 35.4607L91.6314 27.6242C92.0851 27.3721 92.1714 26.7559 91.8044 26.3889Z"
        fill="#F58721" />
    <path
        d="M16.6753 19.0146L12.9882 22.7017L5.88409 15.5974C5.24347 14.9568 4.2087 15.7373 4.64874 16.5293L12.4853 30.6351C12.7374 31.0889 13.3536 31.1752 13.7206 30.8082L17.4077 27.1211L24.5118 34.2252C25.1525 34.8658 26.1872 34.0853 25.7472 33.2933L17.9107 19.1877C17.6587 18.734 17.0423 18.6476 16.6753 19.0146Z"
        fill="#F58721" />
    <path
        d="M70.8652 11.8293H67.7402C66.8773 11.8293 66.1777 11.1297 66.1777 10.2668C66.1777 9.40389 66.8773 8.70428 67.7402 8.70428H70.8652C71.7281 8.70428 72.4277 9.40389 72.4277 10.2668C72.4277 11.1297 71.7281 11.8293 70.8652 11.8293Z"
        fill="#F58721" />
    <path
        d="M80.2402 11.8293H77.1152C76.2523 11.8293 75.5527 11.1297 75.5527 10.2668C75.5527 9.40389 76.2523 8.70428 77.1152 8.70428H80.2402C81.1031 8.70428 81.8027 9.40389 81.8027 10.2668C81.8027 11.1297 81.1031 11.8293 80.2402 11.8293Z"
        fill="#F58721" />
    <path
        d="M73.9902 18.0793C73.1273 18.0793 72.4277 17.3797 72.4277 16.5168V13.3918C72.4277 12.5289 73.1273 11.8293 73.9902 11.8293C74.8531 11.8293 75.5527 12.5289 75.5527 13.3918V16.5168C75.5527 17.3797 74.8531 18.0793 73.9902 18.0793Z"
        fill="#F58721" />
    <path
        d="M73.9902 8.70428C73.1273 8.70428 72.4277 8.00468 72.4277 7.14179V4.01678C72.4277 3.15389 73.1273 2.45428 73.9902 2.45428C74.8531 2.45428 75.5527 3.15389 75.5527 4.01678V7.14179C75.5527 8.00468 74.8531 8.70428 73.9902 8.70428Z"
        fill="#F58721" />
    <path
        d="M23.9902 11.8293H20.8652C20.0023 11.8293 19.3027 11.1297 19.3027 10.2668C19.3027 9.40389 20.0023 8.70428 20.8652 8.70428H23.9902C24.8531 8.70428 25.5527 9.40389 25.5527 10.2668C25.5527 11.1297 24.8531 11.8293 23.9902 11.8293Z"
        fill="#F58721" />
    <path
        d="M33.3652 11.8293H30.2402C29.3773 11.8293 28.6777 11.1297 28.6777 10.2668C28.6777 9.40389 29.3773 8.70428 30.2402 8.70428H33.3652C34.2281 8.70428 34.9277 9.40389 34.9277 10.2668C34.9277 11.1297 34.2281 11.8293 33.3652 11.8293Z"
        fill="#F58721" />
    <path
        d="M27.1152 18.0793C26.2523 18.0793 25.5527 17.3797 25.5527 16.5168V13.3918C25.5527 12.5289 26.2523 11.8293 27.1152 11.8293C27.9781 11.8293 28.6777 12.5289 28.6777 13.3918V16.5168C28.6777 17.3797 27.9781 18.0793 27.1152 18.0793Z"
        fill="#F58721" />
    <path
        d="M27.1152 8.70428C26.2523 8.70428 25.5527 8.00468 25.5527 7.14179V4.01678C25.5527 3.15389 26.2523 2.45428 27.1152 2.45428C27.9781 2.45428 28.6777 3.15389 28.6777 4.01678V7.14179C28.6777 8.00468 27.9781 8.70428 27.1152 8.70428Z"
        fill="#F58721" />
</svg>