<svg width="86" height="100" viewBox="0 0 86 100" fill="none" xmlns="http://www.w3.org/2000/svg">
    <g clip-path="url(#clip0_3575_254)">
        <path
            d="M37.9579 67.1984L36.5254 67.7719H34.3767V54.881H36.5254L37.9579 55.5972V67.1998V67.1984Z"
            fill="#555A6E" />
        <path d="M36.5254 54.881H38.6741V67.7719H36.5254V54.881Z" fill="#463C4B" />
        <path
            d="M12.8909 93.5552H10.7422C4.81823 93.5552 0 88.7356 0 82.813C0 76.8905 4.81966 72.0708 10.7422 72.0708H12.8909V93.5566V93.5552Z"
            fill="#A5C3DC" />
        <path
            d="M62.3089 93.5552H60.1602V72.0694H62.3089C68.2329 72.0694 73.0511 76.889 73.0511 82.8116C73.0511 88.7342 68.2314 93.5538 62.3089 93.5538V93.5552Z"
            fill="#A5C3DC" />
        <path d="M62.3089 97.8513L36.5256 100H8.59497V65.6232H36.5256L62.3089 67.772V97.8513Z"
            fill="#ECF4FE" />
        <path d="M36.5254 65.6232H64.456V100H36.5254V65.6232Z" fill="#D4E7FD" />
        <path d="M12.8909 69.9207H60.1586V95.704H12.8909V69.9207Z" fill="#555A6E" />
        <path d="M36.5254 69.9207H60.16V95.704H36.5254V69.9207Z" fill="#463C4B" />
        <path d="M19.3372 78.5142H27.9321V87.1091H19.3372V78.5142Z" fill="#FEE682" />
        <path d="M45.1204 78.5142H53.7153V87.1091H45.1204V78.5142Z" fill="#FDD742" />
        <path
            d="M38.6742 54.881C38.6742 57.2537 38.8982 59.1785 36.5255 59.1785C34.1528 59.1785 32.228 57.2552 32.228 54.881C32.228 52.5069 34.1513 50.5836 36.5255 50.5836C38.8996 50.5836 38.6742 52.5069 38.6742 54.881Z"
            fill="#FEE682" />
        <path
            d="M36.5254 50.5836V59.1785C38.8981 59.1785 40.8228 57.2552 40.8228 54.881C40.8228 52.5069 38.8995 50.5836 36.5254 50.5836Z"
            fill="#F58721" />
        <path
            d="M78.2002 0H42.9987C38.8382 0 35.4553 3.38289 35.4553 7.54337V42.7448C35.4553 43.6166 35.9076 44.4241 36.6481 44.8836C37.3743 45.3344 38.2975 45.3886 39.0936 44.9949L48.6216 40.2309H78.2002C82.3606 40.2309 85.7435 36.848 85.7435 32.6875V7.54337C85.7435 3.38289 82.3606 0 78.2002 0ZM63.1134 27.6595C63.1134 29.0492 61.9891 30.1735 60.5994 30.1735C59.2097 30.1735 58.0854 29.0492 58.0854 27.6595V22.6301C58.0854 21.2404 59.2097 20.1161 60.5994 20.1161C61.9891 20.1161 63.1134 21.2404 63.1134 22.6301V27.6595ZM60.598 15.0867C59.2097 15.0867 58.084 13.961 58.084 12.5728C58.084 11.1845 59.2097 10.0588 60.598 10.0588C61.9863 10.0588 63.112 11.1845 63.112 12.5728C63.112 13.961 61.9863 15.0867 60.598 15.0867Z"
            fill="#4E8CB7" />
    </g>
    <defs>
        <clipPath id="clip0_3575_254">
            <rect width="85.7422" height="100" fill="white" />
        </clipPath>
    </defs>
</svg>