<svg width="94" height="90" viewBox="0 0 94 90" fill="none" xmlns="http://www.w3.org/2000/svg">
  <path
    d="M91.5071 67.3071L60.8143 7.925C59.501 5.61651 57.5984 3.69809 55.3008 2.3658C53.0033 1.03351 50.3932 0.335129 47.7373 0.342031C45.0814 0.348932 42.475 1.06087 40.1844 2.40508C37.8938 3.74929 36.0012 5.67757 34.7 7.99285L2.55711 67.2107C1.25491 69.4936 0.575377 72.0786 0.586562 74.7067C0.597747 77.3349 1.29926 79.9139 2.62084 82.1856C3.94242 84.4574 5.83769 86.342 8.11682 87.6507C10.3959 88.9595 12.9789 89.6465 15.6071 89.6429H78.3928C81.0124 89.6482 83.5878 88.9674 85.8625 87.6682C88.1372 86.369 90.0321 84.4967 91.3585 82.2377C92.6848 79.9787 93.3965 77.4117 93.4225 74.7922C93.4486 72.1727 92.7882 69.5921 91.5071 67.3071ZM85.2143 78.5714C84.5286 79.7707 83.5368 80.7664 82.3401 81.4566C81.1435 82.1469 79.785 82.5069 78.4035 82.5H15.6071C14.2286 82.4976 12.8748 82.1333 11.6812 81.4436C10.4875 80.7539 9.49588 79.763 8.80532 78.5699C8.11475 77.3767 7.74949 76.0232 7.74605 74.6447C7.7426 73.2661 8.10109 71.9108 8.78568 70.7143L8.82497 70.6464L40.9678 11.4643C41.6507 10.2705 42.6343 9.27628 43.8206 8.58049C45.0069 7.8847 46.3547 7.51157 47.7299 7.4982C49.1052 7.48484 50.46 7.83171 51.6596 8.50432C52.8592 9.17694 53.8618 10.1519 54.5678 11.3321L85.2321 70.7143C85.9261 71.9079 86.2902 73.2646 86.287 74.6453C86.2839 76.026 85.9137 77.381 85.2143 78.5714Z"
    fill="url(#paint0_linear_1912_2339)"/>
  <path
    d="M46.9999 27.1428C46.0527 27.1428 45.1443 27.5191 44.4745 28.1889C43.8047 28.8586 43.4285 29.767 43.4285 30.7143V55.7143C43.4285 56.6615 43.8047 57.5699 44.4745 58.2396C45.1443 58.9094 46.0527 59.2857 46.9999 59.2857C47.9471 59.2857 48.8555 58.9094 49.5253 58.2396C50.195 57.5699 50.5713 56.6615 50.5713 55.7143V30.7143C50.5713 29.767 50.195 28.8586 49.5253 28.1889C48.8555 27.5191 47.9471 27.1428 46.9999 27.1428Z"
    fill="url(#paint1_linear_1912_2339)"/>
  <path d="M46.9999 70C48.9723 70 50.5713 68.401 50.5713 66.4285C50.5713 64.4561 48.9723 62.8571 46.9999 62.8571C45.0274 62.8571 43.4285 64.4561 43.4285 66.4285C43.4285 68.401 45.0274 70 46.9999 70Z" fill="url(#paint2_linear_1912_2339)"/>
  <defs>
    <linearGradient id="paint0_linear_1912_2339" x1="8.71068" y1="105.132" x2="92.2071" y2="12.8036" gradientUnits="userSpaceOnUse">
      <stop stop-color="#FFF33B"/>
      <stop offset="0.04" stop-color="#FEE72E"/>
      <stop offset="0.117" stop-color="#FED51B"/>
      <stop offset="0.196" stop-color="#FDCA10"/>
      <stop offset="0.281" stop-color="#FDC70C"/>
      <stop offset="0.669" stop-color="#F3903F"/>
      <stop offset="0.888" stop-color="#ED683C"/>
      <stop offset="1" stop-color="#E93E3A"/>
    </linearGradient>
    <linearGradient id="paint1_linear_1912_2339" x1="-1.02868" y1="96.3214" x2="82.4678" y2="3.99282" gradientUnits="userSpaceOnUse">
      <stop stop-color="#FFF33B"/>
      <stop offset="0.04" stop-color="#FEE72E"/>
      <stop offset="0.117" stop-color="#FED51B"/>
      <stop offset="0.196" stop-color="#FDCA10"/>
      <stop offset="0.281" stop-color="#FDC70C"/>
      <stop offset="0.669" stop-color="#F3903F"/>
      <stop offset="0.888" stop-color="#ED683C"/>
      <stop offset="1" stop-color="#E93E3A"/>
    </linearGradient>
    <linearGradient id="paint2_linear_1912_2339" x1="10.5213" y1="106.768" x2="94.0178" y2="14.4393" gradientUnits="userSpaceOnUse">
      <stop stop-color="#FFF33B"/>
      <stop offset="0.04" stop-color="#FEE72E"/>
      <stop offset="0.117" stop-color="#FED51B"/>
      <stop offset="0.196" stop-color="#FDCA10"/>
      <stop offset="0.281" stop-color="#FDC70C"/>
      <stop offset="0.669" stop-color="#F3903F"/>
      <stop offset="0.888" stop-color="#ED683C"/>
      <stop offset="1" stop-color="#E93E3A"/>
    </linearGradient>
  </defs>
</svg>
