<svg width="68" height="36" viewBox="0 0 68 36" fill="none" xmlns="http://www.w3.org/2000/svg">
    <path opacity="0.5"
        d="M17.1018 8.85139V27.1486C17.1018 32.6489 13.8487 36 8.55089 36C3.25313 36 0 32.6489 0 27.1486V8.85139C0 3.35112 3.25313 0 8.55089 0C13.8487 0 17.1018 3.35112 17.1018 8.85139ZM5.3043 8.89711V27.0964C5.3043 29.6962 6.454 31.0942 8.55089 31.0942C10.6478 31.0942 11.804 29.6962 11.804 27.0964V8.89711C11.804 6.29722 10.6543 4.89929 8.55089 4.89929C6.44747 4.89929 5.3043 6.29722 5.3043 8.89711Z"
        fill="#662d91" />
    <path opacity="0.5"
        d="M39.404 35.4969V11.1965H39.306L34.9097 30.4931H31.7611L27.3648 11.1965H27.2668V35.4969H22.2695V0.50293H29.22L33.3681 19.3031H33.466L37.5684 0.50293H44.7148V35.4969H39.4171H39.404Z"
        fill="#662d91" />
    <path opacity="0.5"
        d="M58.5244 0.50293C64.2272 0.50293 67.3236 3.59928 67.3236 9.35432V12.1567C67.3236 17.9052 64.2272 21.0081 58.5244 21.0081H56.1728V35.51H50.875V0.50293H58.5244ZM56.1728 16.0957H58.3219C60.8696 16.0957 62.0193 14.7435 62.0193 11.7974V9.70053C62.0193 6.74789 60.8696 5.40222 58.3219 5.40222H56.1728V16.1023V16.0957Z"
        fill="#662d91" />
    <path
        d="M44.7011 35.4969V0.50293H37.5547L33.4524 19.2966H33.3544L29.2063 0.50293H22.2559V35.4969H27.2531V11.1965H27.3577L31.7539 30.4997H34.9026L39.3054 11.1965H39.4034V35.4969H44.7011Z"
        fill="#662d91" />
    <path
        d="M17.101 27.1486V8.85139C17.101 3.35112 13.8544 0 8.55664 0V4.89929C10.6535 4.89929 11.8032 6.29722 11.8032 8.89711V27.0964C11.8032 29.6962 10.6535 31.0942 8.55664 31.0942V35.9935C13.8544 35.9935 17.1075 32.6423 17.1075 27.1421L17.101 27.1486Z"
        fill="#662d91" />
    <path
        d="M58.5244 16.0827C58.4526 16.0827 58.3938 16.0957 58.3219 16.0957H56.1728V5.40222H58.3219C58.3938 5.40222 58.4526 5.41529 58.5244 5.41529V0.50293H50.875V35.4969H56.1728V20.995H58.5244V16.0827Z"
        fill="#662d91" />
</svg>