<svg width="24" height="24" viewBox="0 0 24 24" fill="none" xmlns="http://www.w3.org/2000/svg">
    <path
        d="M20.6025 10.44L18.54 9.93C18.4125 9.54 18.255 9.1575 18.06 8.7975C18.3675 8.28 19.02 7.1925 19.02 7.1925C19.1475 6.9825 19.11 6.72 18.9375 6.5475L17.445 5.055C17.2725 4.8825 17.01 4.8525 16.8 4.9725L15.195 5.9325C14.835 5.745 14.46 5.58 14.07 5.46L13.56 3.3975C13.5 3.165 13.29 3 13.05 3H10.9425C10.7025 3 10.4925 3.165 10.4325 3.3975C10.4325 3.3975 10.08 4.8375 9.9225 5.46C9.51 5.595 9.105 5.76 8.7225 5.97L7.0575 4.9725C6.8475 4.8525 6.585 4.8825 6.4125 5.055L4.92 6.5475C4.7475 6.72 4.7175 6.9825 4.8375 7.1925L5.865 8.91C5.7 9.24 5.5575 9.5775 5.4525 9.9225L3.39 10.4325C3.1575 10.4925 2.9925 10.7025 2.9925 10.9425V13.05C2.9925 13.29 3.1575 13.5 3.39 13.56L5.4525 14.07C5.58 14.4675 5.7375 14.85 5.94 15.225L5.0175 16.7625C4.89 16.9725 4.9275 17.235 5.1 17.4075L6.5925 18.9C6.765 19.0725 7.0275 19.1025 7.2375 18.9825C7.2375 18.9825 8.2725 18.36 8.775 18.06C9.1425 18.255 9.525 18.42 9.9225 18.54L10.4325 20.6025C10.4925 20.835 10.7025 21 10.9425 21H13.05C13.29 21 13.5 20.835 13.56 20.6025L14.07 18.54C14.475 18.4125 14.865 18.2475 15.24 18.045C15.7575 18.36 16.8 18.9825 16.8 18.9825C17.01 19.11 17.2725 19.0725 17.445 18.9L18.9375 17.4075C19.11 17.235 19.14 16.9725 19.02 16.7625L18.075 15.18C18.2625 14.8275 18.42 14.4525 18.54 14.07L20.6025 13.56C20.835 13.5 21 13.29 21 13.05V10.9425C21 10.7025 20.835 10.4925 20.6025 10.4325V10.44ZM12 15.6975C9.9675 15.6975 8.31 14.04 8.31 12.0075C8.31 9.975 9.9675 8.3175 12 8.3175C14.0325 8.3175 15.69 9.975 15.69 12.0075C15.69 14.04 14.0325 15.6975 12 15.6975Z"
        fill="#4E8CB7" />
</svg>