<svg xmlns="http://www.w3.org/2000/svg" width="24" height="24" viewBox="0 0 24 24" fill="none">
    <path
        d="M12.255 14.0175C12.2625 14.0625 12.285 14.1075 12.285 14.16C12.285 14.64 11.9175 15 11.445 15H11.2725L8.46 17.8125H8.8875C9.0825 17.8125 9.2775 17.895 9.42 18.0075L10.9125 19.275C11.535 19.8075 12.4575 19.8075 13.11 19.275L14.6025 18.0075C14.745 17.865 14.94 17.8125 15.135 17.8125H17.64C19.4925 17.8125 21.015 16.29 21.015 14.4375V7.6875C21.015 7.005 20.805 6.3675 20.4525 5.8275L12.27 14.01L12.255 14.0175ZM17.91 15.0075H14.82C14.34 15.0075 13.98 14.64 13.98 14.1675C13.98 13.695 14.3475 13.3275 14.82 13.3275H17.91C18.39 13.3275 18.7575 13.695 18.7575 14.1675C18.7575 14.64 18.39 15.0075 17.91 15.0075ZM17.91 11.6325H16.785C16.305 11.6325 15.9375 11.265 15.9375 10.7925C15.9375 10.32 16.305 9.9525 16.785 9.9525H17.91C18.39 9.9525 18.7575 10.32 18.7575 10.7925C18.7575 11.265 18.39 11.6325 17.91 11.6325Z"
        fill="#4E8CB7" />
    <path
        d="M8.9325 14.3025C8.925 14.2575 8.9025 14.2125 8.9025 14.16C8.9025 13.68 9.27 13.32 9.7425 13.32H9.915L11.6025 11.6325H6.09C5.61 11.6325 5.25 11.265 5.25 10.7925C5.25 10.32 5.6175 9.9525 6.09 9.9525H13.29L18.7125 4.53C18.3675 4.41 18 4.3275 17.6175 4.3275H6.3675C4.5075 4.3275 2.9925 5.8425 2.9925 7.7025V14.4525C2.9925 16.02 4.08 17.3325 5.535 17.7075L8.9325 14.31V14.3025ZM6.09 13.32H6.375C6.855 13.32 7.215 13.6875 7.215 14.16C7.215 14.6325 6.8475 15 6.375 15H6.09C5.61 15 5.25 14.6325 5.25 14.16C5.25 13.6875 5.6175 13.32 6.09 13.32Z"
        fill="#4E8CB7" />
</svg>