<svg width="24" height="24" viewBox="0 0 24 24" fill="none" xmlns="http://www.w3.org/2000/svg">
    <path
        d="M18.0674 3.06394C17.9774 3.01891 17.8573 2.9889 17.7522 3.0039C17.6472 3.0039 17.5421 3.06394 17.4671 3.13899L10.4427 8.96258H6.57035C6.57035 8.96258 6.42026 8.96258 6.34521 9.00761C6.27017 9.03762 6.21013 9.08265 6.1651 9.12768C6.10506 9.17271 6.07505 9.24775 6.04503 9.30779C6.01501 9.38284 6 9.45788 6 9.51792V14.486C6 14.6361 6.06004 14.7862 6.1651 14.8912C6.27017 14.9963 6.42026 15.0563 6.57035 15.0563H10.4427L17.4671 20.8799C17.5571 20.955 17.6472 20.985 17.7522 21C17.8573 21 17.9624 21 18.0674 20.94C18.1575 20.8949 18.2476 20.8199 18.3076 20.7298C18.3676 20.6398 18.3976 20.5347 18.3976 20.4296V3.55925C18.3976 3.45418 18.3676 3.34912 18.3076 3.25906C18.2476 3.16901 18.1725 3.09396 18.0674 3.04893V3.06394Z"
        fill="#87B840" />
</svg>