<svg width="24" height="24" viewBox="0 0 24 24" fill="none" xmlns="http://www.w3.org/2000/svg">
    <g clip-path="url(#clip0_2141_233)">
        <path
            d="M18.0525 6.6975V3.1425C18.0525 3.1425 18.045 3.09 18.03 3.0675C18.015 3.045 17.9925 3.0225 17.97 3.0075C17.955 3 17.94 3 17.9175 3C17.9025 3 17.88 3.0075 17.8725 3.0225H17.865L17.8575 3.0375L10.47 9.1575L10.335 9.27H6.075C6.075 9.27 6.045 9.27 6.03 9.2775C6.015 9.285 6 9.2925 5.9925 9.3C5.985 9.3075 5.97 9.3225 5.97 9.3375C5.97 9.3525 5.9625 9.3675 5.9625 9.3825V14.61C5.9625 14.61 5.9775 14.6775 6 14.7C6.0225 14.7225 6.06 14.7375 6.09 14.7375H10.0125L18.06 6.69L18.0525 6.6975Z"
            fill="#87B840" />
        <path
            d="M11.55 15.7575L17.8425 20.97C17.8575 20.985 17.88 20.9925 17.9025 20.9925C17.925 20.9925 17.9475 20.9925 17.97 20.985C17.9925 20.9775 18.0075 20.955 18.0225 20.94C18.0375 20.9175 18.045 20.895 18.045 20.8725V9.255L11.55 15.75V15.7575Z"
            fill="#87B840" />
    </g>
    <defs>
        <clipPath id="clip0_2141_233">
            <rect width="24" height="24" fill="white" />
        </clipPath>
    </defs>
</svg>