<svg width="24" height="24" viewBox="0 0 24 24" fill="none" xmlns="http://www.w3.org/2000/svg">
    <g clip-path="url(#clip0_4451_413)">
        <path
            d="M22.84 3.18C22.84 1.43 21.41 0 19.66 0H4.18C2.43 0 1 1.42 1 3.18V20.82C1 22.57 2.43 24 4.18 24H16.01C16.1 24 16.18 23.98 16.26 23.95C16.33 23.92 16.4 23.87 16.46 23.82C16.46 23.82 16.47 23.82 16.48 23.81L22.64 17.65C22.7 17.59 22.75 17.52 22.79 17.43C22.82 17.35 22.84 17.27 22.84 17.18V3.18ZM2.32 20.82V3.18C2.32 2.15 3.16 1.32 4.18 1.32H19.65C20.68 1.32 21.51 2.15 21.51 3.18V16.52H18.53C16.77 16.52 15.35 17.94 15.35 19.7V22.68H4.18C3.15 22.68 2.32 21.85 2.32 20.82ZM20.58 17.84L16.67 21.75V19.7C16.67 18.67 17.5 17.84 18.53 17.84H20.58Z"
            fill="#CACFEA" />
        <path
            d="M7.3 13.98C6.89 13.98 6.51 13.91 6.16 13.76C5.81 13.61 5.5 13.41 5.24 13.14C4.98 12.88 4.77 12.57 4.63 12.22C4.49 11.87 4.42 11.49 4.42 11.08C4.42 10.67 4.49 10.3 4.63 9.93999C4.77 9.58999 4.97 9.27999 5.24 9.01999C5.5 8.75999 5.81 8.54999 6.16 8.39999C6.51 8.24999 6.89 8.17999 7.31 8.17999C7.76 8.17999 8.15 8.24999 8.49 8.39999C8.83 8.54999 9.13 8.74999 9.39 8.99999L8.65 9.73999C8.5 9.56999 8.31 9.43999 8.08 9.33999C7.86 9.23999 7.59 9.19999 7.3 9.19999C7.04 9.19999 6.8 9.23999 6.58 9.32999C6.36 9.41999 6.18 9.54999 6.02 9.70999C5.86 9.87999 5.74 10.08 5.65 10.31C5.56 10.54 5.52 10.8 5.52 11.07C5.52 11.34 5.56 11.61 5.65 11.84C5.73 12.07 5.86 12.27 6.02 12.44C6.18 12.61 6.37 12.74 6.58 12.83C6.8 12.92 7.04 12.97 7.3 12.97C7.61 12.97 7.88 12.92 8.11 12.83C8.34 12.73 8.53 12.6 8.68 12.42L9.42 13.16C9.16 13.42 8.85 13.62 8.51 13.77C8.16 13.91 7.76 13.99 7.3 13.99V13.98Z"
            fill="#CACFEA" />
        <path
            d="M11.72 13.98C11.27 13.98 10.88 13.9 10.56 13.75C10.24 13.6 9.95 13.36 9.68 13.05L10.4 12.33C10.57 12.55 10.76 12.72 10.98 12.84C11.2 12.96 11.47 13.02 11.78 13.02C12.06 13.02 12.29 12.96 12.46 12.85C12.63 12.74 12.71 12.58 12.71 12.39C12.71 12.22 12.66 12.08 12.57 11.97C12.47 11.86 12.35 11.77 12.19 11.7C12.03 11.63 11.86 11.56 11.67 11.5C11.48 11.44 11.29 11.37 11.1 11.29C10.91 11.21 10.74 11.11 10.58 10.99C10.42 10.87 10.3 10.72 10.2 10.53C10.1 10.34 10.06 10.1 10.06 9.81001C10.06 9.47001 10.14 9.18001 10.31 8.94001C10.48 8.70001 10.7 8.52001 10.99 8.39001C11.28 8.26001 11.6 8.20001 11.97 8.20001C12.35 8.20001 12.7 8.27001 13.01 8.42001C13.32 8.56001 13.57 8.75001 13.77 8.98001L13.05 9.70001C12.88 9.52001 12.72 9.39001 12.54 9.30001C12.37 9.22001 12.17 9.17001 11.95 9.17001C11.7 9.17001 11.5 9.22001 11.36 9.31001C11.22 9.41001 11.14 9.54001 11.14 9.73001C11.14 9.88001 11.19 10.01 11.28 10.11C11.38 10.21 11.5 10.29 11.66 10.36C11.82 10.43 11.99 10.5 12.18 10.56C12.37 10.62 12.56 10.7 12.75 10.78C12.94 10.86 13.11 10.96 13.27 11.09C13.43 11.22 13.55 11.38 13.65 11.58C13.75 11.78 13.79 12.03 13.79 12.32C13.79 12.84 13.61 13.25 13.24 13.55C12.87 13.85 12.37 14 11.73 14L11.72 13.98Z"
            fill="#CACFEA" />
        <path d="M16.32 13.9L14.1 8.28H15.28L16.99 12.83H16.53L18.26 8.28H19.42L17.18 13.9H16.32Z"
            fill="#CACFEA" />
    </g>
    <defs>
        <clipPath id="clip0_4451_413">
            <rect width="21.84" height="24" fill="white" transform="translate(1)" />
        </clipPath>
    </defs>
</svg>