<svg width="24" height="24" viewBox="0 0 24 24" fill="none" xmlns="http://www.w3.org/2000/svg">
    <g clip-path="url(#clip0_3599_314)">
        <path
            d="M22.84 3.18C22.84 1.43 21.41 0 19.66 0H4.18C2.43 0 1 1.42 1 3.18V20.82C1 22.57 2.43 24 4.18 24H16.01C16.1 24 16.18 23.98 16.26 23.95C16.33 23.92 16.4 23.87 16.46 23.82C16.46 23.82 16.47 23.82 16.48 23.81L22.64 17.65C22.7 17.59 22.75 17.52 22.79 17.43C22.82 17.35 22.84 17.27 22.84 17.18V3.18ZM2.32 20.82V3.18C2.32 2.15 3.16 1.32 4.18 1.32H19.65C20.68 1.32 21.51 2.15 21.51 3.18V16.52H18.53C16.77 16.52 15.35 17.94 15.35 19.7V22.68H4.18C3.15 22.68 2.32 21.85 2.32 20.82ZM20.58 17.84L16.67 21.75V19.7C16.67 18.67 17.5 17.84 18.53 17.84H20.58Z"
            fill="#CACFEA" />
        <path
            d="M7.79 8.39999C7.5 8.25999 7.18 8.17999 6.83 8.17999H4.61V13.8H5.7V11.71H6.83C7.19 11.71 7.51 11.64 7.79 11.49C8.08 11.35 8.3 11.14 8.47 10.88C8.64 10.62 8.72 10.3 8.72 9.93999C8.72 9.57999 8.64 9.25999 8.47 8.99999C8.3 8.73999 8.08 8.52999 7.79 8.38999V8.39999ZM7.51 10.43C7.43 10.56 7.32 10.66 7.18 10.73C7.04 10.8 6.89 10.83 6.72 10.83H5.7V9.06999H6.72C6.89 9.06999 7.05 9.10999 7.18 9.16999C7.31 9.22999 7.43 9.33999 7.51 9.46999C7.59 9.59999 7.63 9.75999 7.63 9.93999C7.63 10.12 7.59 10.29 7.51 10.42V10.43Z"
            fill="#CACFEA" />
        <path
            d="M14.37 9.88C14.22 9.54 14.02 9.24 13.75 8.99C13.49 8.74 13.18 8.54 12.82 8.4C12.47 8.26 12.08 8.19 11.66 8.19H9.47V13.81H11.68C12.09 13.81 12.47 13.74 12.83 13.6C13.18 13.46 13.49 13.27 13.75 13.01C14.01 12.75 14.22 12.46 14.36 12.11C14.51 11.77 14.58 11.39 14.58 10.99C14.58 10.59 14.51 10.21 14.36 9.87L14.37 9.88ZM13.25 11.97C13.1 12.25 12.89 12.46 12.61 12.61C12.34 12.76 12.02 12.84 11.66 12.84H10.57V9.15H11.66C12.02 9.15 12.33 9.23 12.6 9.38C12.87 9.53 13.09 9.75 13.24 10.02C13.39 10.29 13.47 10.62 13.47 10.98C13.47 11.34 13.39 11.69 13.24 11.96L13.25 11.97Z"
            fill="#CACFEA" />
        <path
            d="M16.55 11.51H19.09V10.54H16.55V9.15H19.23V8.19H16.55H16.26H15.46V13.81H16.55V11.51Z"
            fill="#CACFEA" />
    </g>
    <defs>
        <clipPath id="clip0_3599_314">
            <rect width="21.84" height="24" fill="white" transform="translate(1)" />
        </clipPath>
    </defs>
</svg>