<svg width="24" height="24" viewBox="0 0 24 24" fill="none" xmlns="http://www.w3.org/2000/svg">
    <g clip-path="url(#clip0_4451_429)">
        <path
            d="M22.84 3.18C22.84 1.43 21.41 0 19.66 0H4.18C2.43 0 1 1.42 1 3.18V20.82C1 22.57 2.43 24 4.18 24H16.01C16.1 24 16.18 23.98 16.26 23.95C16.33 23.92 16.4 23.87 16.46 23.82C16.46 23.82 16.47 23.82 16.48 23.81L22.64 17.65C22.7 17.59 22.75 17.52 22.79 17.43C22.82 17.35 22.84 17.27 22.84 17.18V3.18ZM2.32 20.82V3.18C2.32 2.15 3.16 1.32 4.18 1.32H19.65C20.68 1.32 21.51 2.15 21.51 3.18V16.52H18.53C16.77 16.52 15.35 17.94 15.35 19.7V22.68H4.18C3.15 22.68 2.32 21.85 2.32 20.82ZM20.58 17.84L16.67 21.75V19.7C16.67 18.67 17.5 17.84 18.53 17.84H20.58Z"
            fill="#CACFEA" />
        <path
            d="M7.83 13.98C7.39 13.98 6.99 13.86 6.63 13.62C6.27 13.38 5.99 13.04 5.78 12.6C5.57 12.16 5.46 11.65 5.46 11.07C5.46 10.49 5.56 9.97999 5.77 9.54999C5.98 9.11999 6.26 8.77999 6.61 8.53999C6.96 8.29999 7.36 8.17999 7.8 8.17999C8.24 8.17999 8.65 8.29999 9 8.53999C9.35 8.77999 9.64 9.11999 9.84 9.54999C10.04 9.97999 10.15 10.5 10.15 11.08C10.15 11.66 10.05 12.17 9.84 12.6C9.63 13.03 9.35 13.37 9 13.61C8.65 13.85 8.25 13.97 7.82 13.97L7.83 13.98ZM7.81 12.99C8.07 12.99 8.29 12.92 8.47 12.77C8.66 12.63 8.8 12.41 8.91 12.13C9.01 11.85 9.07 11.5 9.07 11.07C9.07 10.64 9.02 10.3 8.91 10.01C8.81 9.72999 8.66 9.51999 8.47 9.36999C8.28 9.22999 8.06 9.15999 7.8 9.15999C7.54 9.15999 7.33 9.22999 7.14 9.36999C6.95 9.50999 6.81 9.71999 6.7 9.99999C6.59 10.28 6.54 10.63 6.54 11.05C6.54 11.47 6.59 11.83 6.7 12.11C6.8 12.39 6.95 12.61 7.14 12.75C7.33 12.89 7.55 12.97 7.8 12.97L7.81 12.99Z"
            fill="#CACFEA" />
        <path d="M10.63 9.22V8.28H12.73V9.22H10.63ZM11.74 13.9V8.28H12.81V13.9H11.74Z"
            fill="#CACFEA" />
        <path
            d="M16.04 13.98C15.6 13.98 15.2 13.86 14.84 13.62C14.48 13.38 14.2 13.04 13.99 12.6C13.78 12.16 13.67 11.65 13.67 11.07C13.67 10.49 13.77 9.97999 13.98 9.54999C14.19 9.11999 14.47 8.77999 14.82 8.53999C15.17 8.29999 15.57 8.17999 16.01 8.17999C16.45 8.17999 16.86 8.29999 17.21 8.53999C17.56 8.77999 17.85 9.11999 18.05 9.54999C18.25 9.97999 18.36 10.5 18.36 11.08C18.36 11.66 18.26 12.17 18.05 12.6C17.84 13.03 17.56 13.37 17.21 13.61C16.86 13.85 16.46 13.97 16.03 13.97L16.04 13.98ZM16.03 12.99C16.29 12.99 16.51 12.92 16.69 12.77C16.88 12.63 17.02 12.41 17.13 12.13C17.23 11.85 17.29 11.5 17.29 11.07C17.29 10.64 17.24 10.3 17.13 10.01C17.03 9.72999 16.88 9.51999 16.69 9.36999C16.5 9.22999 16.28 9.15999 16.02 9.15999C15.76 9.15999 15.55 9.22999 15.36 9.36999C15.17 9.50999 15.03 9.71999 14.92 9.99999C14.81 10.28 14.76 10.63 14.76 11.05C14.76 11.47 14.81 11.83 14.92 12.11C15.02 12.39 15.17 12.61 15.36 12.75C15.55 12.89 15.77 12.97 16.02 12.97L16.03 12.99Z"
            fill="#CACFEA" />
    </g>
    <defs>
        <clipPath id="clip0_4451_429">
            <rect width="21.84" height="24" fill="white" transform="translate(1)" />
        </clipPath>
    </defs>
</svg>