<svg width="24" height="24" viewBox="0 0 24 24" fill="none" xmlns="http://www.w3.org/2000/svg">
    <path
        d="M3 5.69999C3 5.20499 3.405 4.79999 3.9 4.79999H15.6C16.095 4.79999 16.5 5.20499 16.5 5.69999C16.5 6.19499 16.095 6.59999 15.6 6.59999H3.9C3.405 6.59999 3 6.19499 3 5.69999Z"
        fill="#CACFEA" />
    <path
        d="M20.1 11.1H3.9C3.405 11.1 3 11.505 3 12C3 12.495 3.405 12.9 3.9 12.9H20.1C20.595 12.9 21 12.495 21 12C21 11.505 20.595 11.1 20.1 11.1Z"
        fill="#CACFEA" />
    <path
        d="M12 17.4H3.9C3.405 17.4 3 17.805 3 18.3C3 18.795 3.405 19.2 3.9 19.2H12C12.495 19.2 12.9 18.795 12.9 18.3C12.9 17.805 12.495 17.4 12 17.4Z"
        fill="#CACFEA" />
</svg>