<svg width="24" height="24" viewBox="0 0 24 24" fill="none" xmlns="http://www.w3.org/2000/svg">
  <path d="M18.5475 3.8175H5.4525C4.09802 3.8175 3 4.91553 3 6.27V17.73C3 19.0845 4.09802 20.1825 5.4525 20.1825H18.5475C19.902 20.1825 21 19.0845 21 17.73V6.27C21 4.91553 19.902 3.8175 18.5475 3.8175Z" fill="#CACFEA"/>
  <path d="M12.09 16.2C11.4075 16.2 10.8 16.1175 10.2525 15.945C9.705 15.765 9.2325 15.51 8.8275 15.1725L9.18 14.3625C9.6 14.685 10.035 14.9175 10.4925 15.075C10.95 15.2325 11.4825 15.3075 12.09 15.3075C12.825 15.3075 13.3725 15.1725 13.725 14.9025C14.085 14.625 14.265 14.2575 14.265 13.8075C14.265 13.4475 14.1375 13.1625 13.875 12.945C13.62 12.735 13.1925 12.5625 12.585 12.4425L11.31 12.1875C10.5375 12.0225 9.9675 11.76 9.5775 11.3925C9.2025 11.0175 9.015 10.515 9.015 9.8925C9.015 9.375 9.1425 8.925 9.405 8.5425C9.675 8.16 10.05 7.86 10.5225 7.65C10.995 7.44 11.5425 7.3275 12.165 7.3275C12.7425 7.3275 13.2825 7.425 13.785 7.6125C14.2875 7.7925 14.7075 8.055 15.0525 8.4L14.7 9.1875C14.3325 8.85 13.9425 8.61 13.5375 8.46C13.125 8.3025 12.6675 8.2275 12.165 8.2275C11.52 8.2275 11.0025 8.3775 10.62 8.685C10.2375 8.9775 10.0425 9.375 10.0425 9.8625C10.0425 10.2525 10.1625 10.5675 10.395 10.7925C10.6425 11.025 11.04 11.19 11.5875 11.295L12.8625 11.565C13.6875 11.7375 14.295 12 14.6925 12.3525C15.09 12.6975 15.2925 13.17 15.2925 13.7625C15.2925 14.2425 15.165 14.67 14.9025 15.0375C14.6475 15.405 14.28 15.69 13.8 15.9C13.3275 16.1025 12.7575 16.2075 12.105 16.2075L12.09 16.2Z" fill="#292D43"/>
</svg>
