<svg xmlns="http://www.w3.org/2000/svg" width="24" height="24" viewBox="0 0 24 24" fill="none">
  <path d="M17.8725 3.06C17.775 3.0075 17.67 2.9925 17.5575 3.0075C17.4525 3.0225 17.3475 3.0675 17.2725 3.1425L10.2525 8.955H6.375C6.3 8.955 6.225 8.97 6.1575 8.9925C6.09 9.0225 6.0225 9.06 5.97 9.1125C5.9175 9.165 5.8725 9.225 5.8425 9.2925C5.8125 9.36 5.7975 9.435 5.7975 9.51V14.4825C5.7975 14.6325 5.8575 14.7825 5.9625 14.8875C6.0675 14.9925 6.2175 15.0525 6.3675 15.0525H10.245L17.265 20.865C17.3475 20.9325 17.4525 20.9775 17.5575 20.985C17.6625 21 17.775 20.985 17.865 20.9325C17.9625 20.8875 18.045 20.8125 18.0975 20.73C18.1575 20.64 18.1875 20.535 18.1875 20.43V3.5775C18.1875 3.4725 18.15 3.3675 18.0975 3.27C18.0375 3.18 17.955 3.105 17.865 3.0525L17.8725 3.06Z" fill="#6D738F"/>
</svg>
