<svg width="24" height="24" viewBox="0 0 24 24" fill="none" xmlns="http://www.w3.org/2000/svg">
<path d="M12 21C11.6925 21 11.4 20.8725 11.19 20.655L4.065 13.1175C3.645 12.6675 3.66 11.97 4.11 11.5425C4.5525 11.1225 5.2575 11.1375 5.685 11.5875L12.0075 18.27L18.3225 11.5875C18.7425 11.1375 19.4475 11.1225 19.8975 11.5425C20.3475 11.9625 20.3625 12.6675 19.9425 13.1175L12.8175 20.655C12.6075 20.88 12.315 21 12.0075 21H12Z" fill="#CACFEA"/>
<path d="M12 12.7575C11.6925 12.7575 11.4 12.63 11.19 12.4125L4.065 4.875C3.645 4.425 3.66 3.7275 4.11 3.3C4.5525 2.88 5.2575 2.895 5.685 3.345L12.0075 10.0275L18.3225 3.345C18.7425 2.895 19.4475 2.88 19.8975 3.3C20.3475 3.72 20.3625 4.425 19.9425 4.875L12.8175 12.4125C12.6075 12.6375 12.315 12.7575 12.0075 12.7575H12Z" fill="#CACFEA"/>
</svg>
