<svg width="24" height="24" viewBox="0 0 24 24" fill="none" xmlns="http://www.w3.org/2000/svg">
<mask id="mask0_1703_642" style="mask-type:luminance" maskUnits="userSpaceOnUse" x="3" y="3" width="18" height="18">
<path d="M21 3H3V21H21V3Z" fill="white"/>
</mask>
<g mask="url(#mask0_1703_642)">
<path d="M12 21C16.9725 21 21 16.9725 21 12C21 7.0275 16.9725 3 12 3C7.0275 3 3 7.0275 3 12C3 16.9725 7.0275 21 12 21Z" fill="#585C6C"/>
<path d="M15.4875 11.2425H12.6975V8.45251C12.6975 8.07001 12.3825 7.755 12 7.755C11.6175 7.755 11.3025 8.07001 11.3025 8.45251V11.2425H8.5125C8.13 11.2425 7.815 11.5575 7.815 11.94C7.815 12.3225 8.13 12.6375 8.5125 12.6375H11.3025V15.4275C11.3025 15.81 11.6175 16.125 12 16.125C12.3825 16.125 12.6975 15.81 12.6975 15.4275V12.6375H15.4875C15.87 12.6375 16.185 12.3225 16.185 11.94C16.185 11.5575 15.87 11.2425 15.4875 11.2425Z" fill="white"/>
</g>
</svg>
