<svg width="21" height="18" viewBox="0 0 21 18" fill="none" xmlns="http://www.w3.org/2000/svg">
<path d="M17.85 0H3.15C1.40875 0 0 1.40875 0 3.15V13.8862C0 15.6275 1.40875 17.0362 3.15 17.0362H17.8587C19.6 17.0362 21.0088 15.6275 21.0088 13.8862V3.15C21.0088 1.40875 19.6 0 17.8587 0H17.85ZM17.8238 9.9225H14.3763C14.0175 9.9225 13.7025 9.70375 13.5625 9.38L12.8975 7.76125L10.9637 11.8125C10.8237 12.11 10.5262 12.3025 10.2025 12.3112C10.2025 12.3112 10.185 12.3112 10.1763 12.3112C9.86125 12.3112 9.56375 12.1362 9.40625 11.8562L7.62125 8.61L7.02625 9.52875C6.86875 9.77375 6.58875 9.9225 6.29125 9.9225H3.185C2.70375 9.9225 2.31 9.52875 2.31 9.0475C2.31 8.56625 2.70375 8.1725 3.185 8.1725H5.81875L6.95625 6.43125C7.1225 6.1775 7.42 6.01125 7.72625 6.0375C8.0325 6.04625 8.3125 6.22125 8.46125 6.4925L10.1325 9.52875L12.1888 5.2325C12.3375 4.9175 12.6613 4.725 13.0025 4.73375C13.3525 4.7425 13.6588 4.9525 13.79 5.27625L14.98 8.18125H17.8412C18.3225 8.18125 18.7162 8.575 18.7162 9.05625C18.7162 9.5375 18.3225 9.93125 17.8412 9.93125L17.8238 9.9225Z" fill="#6D738F"/>
</svg>