<svg xmlns="http://www.w3.org/2000/svg" width="24" height="24" viewBox="0 0 24 24" fill="none">
  <path d="M17.625 4.32H6.3825C5.49 4.32 4.6275 4.68 3.9975 5.31C3.3675 5.94 3.0075 6.8025 3.0075 7.695V14.4375C3.0075 15.33 3.375 16.185 4.005 16.815C4.635 17.445 5.49 17.7975 6.39 17.805H8.8875C9.0825 17.805 9.27 17.88 9.4275 18L10.92 19.275C11.2275 19.53 11.6175 19.6725 12.015 19.6725C12.4125 19.6725 12.8025 19.53 13.11 19.275L14.5875 18C14.7375 17.8725 14.925 17.7975 15.1275 17.805H17.625C18.5175 17.805 19.3725 17.445 20.01 16.815C20.64 16.185 21 15.33 21.0075 14.4375V7.695C21.0075 6.8025 20.6475 5.94 20.0175 5.31C19.3875 4.68 18.525 4.32 17.6325 4.32H17.625ZM6.375 15.0075H6.09C5.865 15.0075 5.6475 14.9175 5.49 14.76C5.3325 14.6025 5.2425 14.385 5.2425 14.16C5.2425 13.935 5.3325 13.7175 5.49 13.56C5.6475 13.4025 5.865 13.3125 6.09 13.3125H6.375C6.6 13.3125 6.8175 13.4025 6.975 13.56C7.1325 13.7175 7.2225 13.935 7.2225 14.16C7.2225 14.385 7.1325 14.6025 6.975 14.76C6.8175 14.9175 6.6 15.0075 6.375 15.0075ZM11.4375 15.0075H9.7575C9.5325 15.0075 9.315 14.9175 9.1575 14.76C9 14.6025 8.91 14.385 8.91 14.16C8.91 13.935 9 13.7175 9.1575 13.56C9.315 13.4025 9.5325 13.3125 9.7575 13.3125H11.4375C11.6625 13.3125 11.88 13.4025 12.0375 13.56C12.195 13.7175 12.285 13.935 12.285 14.16C12.285 14.385 12.195 14.6025 12.0375 14.76C11.88 14.9175 11.6625 15.0075 11.4375 15.0075ZM6.09 11.64C5.865 11.64 5.6475 11.55 5.49 11.3925C5.3325 11.235 5.2425 11.0175 5.2425 10.7925C5.2425 10.5675 5.3325 10.35 5.49 10.1925C5.6475 10.035 5.865 9.945 6.09 9.945H13.41C13.635 9.945 13.8525 10.035 14.01 10.1925C14.1675 10.35 14.2575 10.5675 14.2575 10.7925C14.2575 11.0175 14.1675 11.235 14.01 11.3925C13.8525 11.55 13.635 11.64 13.41 11.64H6.09ZM17.91 15.0075H14.82C14.595 15.0075 14.3775 14.9175 14.22 14.76C14.0625 14.6025 13.9725 14.385 13.9725 14.16C13.9725 13.935 14.0625 13.7175 14.22 13.56C14.3775 13.4025 14.595 13.3125 14.82 13.3125H17.91C18.135 13.3125 18.3525 13.4025 18.51 13.56C18.6675 13.7175 18.7575 13.935 18.7575 14.16C18.7575 14.385 18.6675 14.6025 18.51 14.76C18.3525 14.9175 18.135 15.0075 17.91 15.0075ZM17.91 11.64H16.815C16.59 11.64 16.38 11.55 16.215 11.3925C16.0575 11.235 15.9675 11.0175 15.9675 10.7925C15.9675 10.5675 16.0575 10.35 16.215 10.1925C16.3725 10.035 16.59 9.945 16.815 9.945H17.91C18.135 9.945 18.3525 10.035 18.51 10.1925C18.6675 10.35 18.7575 10.5675 18.7575 10.7925C18.7575 11.0175 18.6675 11.235 18.51 11.3925C18.3525 11.55 18.135 11.64 17.91 11.64Z" fill="#6D738F"/>
</svg>
