<svg width="24" height="24" viewBox="0 0 24 24" fill="none" xmlns="http://www.w3.org/2000/svg">
  <path d="M5.565 20.1825H18.54C19.8975 20.1825 20.9925 19.08 20.9925 17.73V6.2775C20.9925 5.8425 20.865 5.4375 20.67 5.0775L5.565 20.1825Z" fill="#00A3E9"/>
  <path d="M3.7575 19.4925L19.305 3.9525C19.065 3.8775 18.81 3.8175 18.5475 3.8175H5.4525C4.095 3.8175 3 4.92 3 6.27V17.7225C3 18.42 3.2925 19.0425 3.7575 19.4925Z" fill="#00A3E9"/>
  <path d="M11.115 12.135L11.895 11.355L11.58 11.2875C11.0325 11.1825 10.635 11.01 10.3875 10.785C10.1475 10.5525 10.035 10.245 10.035 9.855C10.035 9.3675 10.23 8.97 10.6125 8.6775C10.995 8.3775 11.5125 8.22 12.1575 8.22C12.6675 8.22 13.125 8.295 13.53 8.4525C13.815 8.5575 14.0775 8.715 14.34 8.91L14.94 8.31C14.6175 8.01 14.235 7.77 13.785 7.6125C13.2825 7.425 12.7425 7.3275 12.165 7.3275C11.5425 7.3275 10.995 7.4325 10.5225 7.65C10.05 7.86 9.675 8.16 9.405 8.5425C9.1425 8.925 9.015 9.375 9.015 9.8925C9.015 10.515 9.2025 11.01 9.5775 11.3925C9.93 11.73 10.4475 11.9775 11.115 12.1425V12.135Z" fill="white"/>
  <path d="M13.8825 11.8725L13.155 12.6C13.4625 12.6975 13.71 12.8175 13.875 12.9525C14.1375 13.1625 14.265 13.455 14.265 13.815C14.265 14.265 14.085 14.6325 13.725 14.91C13.3725 15.18 12.8325 15.315 12.09 15.315C11.5425 15.315 11.07 15.24 10.6425 15.12L9.9375 15.825C10.0425 15.87 10.14 15.9225 10.245 15.96C10.7925 16.1325 11.4075 16.215 12.0825 16.215C12.7575 16.215 13.305 16.11 13.7775 15.9075C14.2575 15.705 14.625 15.42 14.88 15.045C15.1425 14.6775 15.27 14.25 15.27 13.77C15.27 13.17 15.0675 12.705 14.67 12.36C14.4675 12.1725 14.1975 12.015 13.8675 11.88L13.8825 11.8725Z" fill="white"/>
</svg>
