<svg width="21" height="21" viewBox="0 0 21 21" fill="none" xmlns="http://www.w3.org/2000/svg">
    <g clip-path="url(#clip0_5057_2631)">
        <path
            d="M10.5 21C16.299 21 21 16.299 21 10.5C21 4.70101 16.299 0 10.5 0C4.70101 0 0 4.70101 0 10.5C0 16.299 4.70101 21 10.5 21Z"
            fill="#4E8CB7" />
        <path d="M13.2705 10.02H7.73047V10.98H13.2705V10.02Z" fill="white" />
        <path
            d="M14.8302 15.2398H6.1702C5.3602 15.2398 4.7002 14.5798 4.7002 13.7698V7.22977C4.7002 6.41977 5.3602 5.75977 6.1702 5.75977H14.8302C15.6402 5.75977 16.3002 6.41977 16.3002 7.22977V13.7598C16.3002 14.5698 15.6402 15.2298 14.8302 15.2298V15.2398ZM6.1702 6.75977C5.9102 6.75977 5.7002 6.96977 5.7002 7.22977V13.7598C5.7002 14.0198 5.9102 14.2298 6.1702 14.2298H14.8302C15.0902 14.2298 15.3002 14.0198 15.3002 13.7598V7.22977C15.3002 6.96977 15.0902 6.75977 14.8302 6.75977H6.1702Z"
            fill="white" />
    </g>
    <defs>
        <clipPath id="clip0_5057_2631">
            <rect width="21" height="21" fill="white" />
        </clipPath>
    </defs>
</svg>