<svg width="21" height="21" viewBox="0 0 21 21" fill="none" xmlns="http://www.w3.org/2000/svg">
    <g clip-path="url(#clip0_5057_2636)">
        <path
            d="M10.5 21C16.299 21 21 16.299 21 10.5C21 4.70101 16.299 0 10.5 0C4.70101 0 0 4.70101 0 10.5C0 16.299 4.70101 21 10.5 21Z"
            fill="#4E8CB7" />
        <path
            d="M10.8502 15.4398C10.7502 15.3398 10.6202 15.2898 10.4802 15.2898C8.93023 15.2898 7.48023 14.5298 6.58023 13.2398C5.84023 12.1698 5.57023 10.9298 5.80023 9.64975C5.97023 8.70975 6.40023 7.84975 7.05023 7.17975L7.27023 6.95975L7.20023 8.14975C7.18023 8.44975 7.40023 8.68975 7.69023 8.70975C7.98023 8.70975 8.21023 8.49975 8.23023 8.21975L8.36023 5.88975C8.36023 5.74975 8.32023 5.60975 8.23023 5.49975C8.14023 5.39975 8.01023 5.33975 7.87023 5.32975L5.53023 5.19975C5.40023 5.18975 5.28023 5.22975 5.18023 5.30975C5.07023 5.40975 5.00023 5.54975 4.99023 5.68975C4.97023 5.95975 5.20023 6.20975 5.49023 6.24975L6.49023 6.29975L6.31023 6.47975C5.51023 7.29975 4.98023 8.33975 4.78023 9.48975C4.50023 11.0098 4.84023 12.5498 5.73023 13.8298C6.82023 15.3898 8.59023 16.3198 10.4802 16.3198C10.7602 16.3198 10.9902 16.0898 10.9902 15.8198C10.9902 15.6698 10.9502 15.5498 10.8502 15.4498V15.4398Z"
            fill="white" />
        <path
            d="M15.5302 14.6799H14.5502L14.7302 14.4799C16.6102 12.4899 16.8402 9.40994 15.2702 7.17994C14.1902 5.61994 12.4002 4.68994 10.4902 4.68994C10.1902 4.68994 9.9502 4.90994 9.9502 5.19994C9.9502 5.48994 10.1902 5.71994 10.4802 5.71994C12.0502 5.71994 13.5202 6.47994 14.4202 7.75994C15.7302 9.63994 15.5102 12.1999 13.9102 13.8499L13.7102 14.0599V12.8499C13.7202 12.5599 13.4902 12.3299 13.2002 12.3099C12.9202 12.3099 12.6902 12.5499 12.6902 12.8299L12.6602 15.1699C12.6602 15.3099 12.7202 15.4499 12.8002 15.5299C12.9002 15.6399 13.0202 15.6899 13.1702 15.6899L15.5202 15.7299C15.8102 15.7299 16.0402 15.4999 16.0402 15.2099C16.0402 14.9299 15.8202 14.6999 15.5302 14.6799Z"
            fill="white" />
    </g>
    <defs>
        <clipPath id="clip0_5057_2636">
            <rect width="21" height="21" fill="white" />
        </clipPath>
    </defs>
</svg>