<svg width="24" height="23" viewBox="0 0 24 23" fill="none" xmlns="http://www.w3.org/2000/svg">
    <g clip-path="url(#clip0_5057_2625)">
        <path
            d="M2.86 8.66C2.69 8.83 2.45 8.88 2.22 8.8C2.13 8.77 2.06 8.72 2 8.66C1.9 8.56 1.84 8.43 1.82 8.29L1.42 4L0.18 2.75C-0.06 2.51 -0.06 2.13 0.18 1.89L1.89 0.18C2.13 -0.06 2.51 -0.06 2.75 0.18L4 1.43L8.29 1.83C8.52 1.85 8.73 2.01 8.8 2.23C8.88 2.45 8.82 2.7 8.66 2.87L2.86 8.66ZM5.18 9.64C5.18 9.64 5.16 9.62 5.15 9.61C5.04 9.5 4.97 9.34 4.97 9.18V9.06C4.97 8.76 5.19 8.5 5.49 8.46C6.25 8.35 6.93 8 7.47 7.46C8.05 6.88 8.4 6.14 8.49 5.33C8.52 5.02 8.78 4.79 9.09 4.79H9.2C9.37 4.79 9.53 4.86 9.65 4.99C9.77 5.12 9.82 5.29 9.8 5.46C9.69 6.58 9.2 7.6 8.4 8.41C7.65 9.16 6.7 9.63 5.66 9.78C5.49 9.81 5.31 9.75 5.18 9.64Z"
            fill="#CACFEA" />
        <path
            d="M15.3406 2.93006C15.1706 2.76006 15.1206 2.52006 15.2006 2.29006C15.2306 2.20006 15.2806 2.13006 15.3406 2.07006C15.4406 1.97006 15.5706 1.91006 15.7106 1.89006L20.0006 1.49006L21.2506 0.240059C21.4906 5.85914e-05 21.8706 5.85914e-05 22.1106 0.240059L23.8206 1.95006C24.0606 2.19006 24.0606 2.57006 23.8206 2.81006L22.5706 4.06006L22.1706 8.35006C22.1506 8.58006 21.9906 8.79006 21.7706 8.86006C21.5506 8.94006 21.3006 8.88006 21.1306 8.72006L15.3406 2.93006ZM14.3606 5.25006C14.3606 5.25006 14.3806 5.23006 14.3906 5.22006C14.5006 5.11006 14.6606 5.04006 14.8206 5.04006H14.9406C15.2406 5.04006 15.5006 5.26006 15.5406 5.56006C15.6506 6.32006 16.0006 7.00006 16.5406 7.54006C17.1206 8.12006 17.8606 8.47006 18.6706 8.56006C18.9806 8.59006 19.2106 8.85006 19.2106 9.16006V9.27006C19.2106 9.44006 19.1406 9.60006 19.0106 9.72006C18.8806 9.84006 18.7106 9.89006 18.5406 9.87006C17.4206 9.76006 16.4006 9.27006 15.5906 8.47006C14.8406 7.72006 14.3706 6.77006 14.2206 5.73006C14.1906 5.56006 14.2506 5.38006 14.3606 5.25006Z"
            fill="#CACFEA" />
        <path
            d="M21.1396 13.6502C21.3096 13.4802 21.5496 13.4302 21.7796 13.5102C21.8696 13.5402 21.9396 13.5902 21.9996 13.6502C22.0996 13.7502 22.1596 13.8802 22.1796 14.0202L22.5796 18.3102L23.8296 19.5602C24.0696 19.8002 24.0696 20.1802 23.8296 20.4202L22.1196 22.1302C21.8796 22.3702 21.4996 22.3702 21.2596 22.1302L20.0096 20.8802L15.7196 20.4802C15.4896 20.4602 15.2796 20.3002 15.2096 20.0802C15.1296 19.8602 15.1896 19.6102 15.3496 19.4402L21.1496 13.6402L21.1396 13.6502ZM18.8196 12.6702C18.8196 12.6702 18.8396 12.6902 18.8496 12.7002C18.9596 12.8102 19.0296 12.9702 19.0296 13.1302V13.2502C19.0296 13.5502 18.8096 13.8102 18.5096 13.8502C17.7496 13.9602 17.0696 14.3102 16.5296 14.8502C15.9496 15.4302 15.5996 16.1702 15.5096 16.9802C15.4796 17.2902 15.2196 17.5202 14.9096 17.5202H14.7996C14.6296 17.5202 14.4696 17.4502 14.3496 17.3202C14.2296 17.1902 14.1796 17.0202 14.1996 16.8502C14.3096 15.7302 14.7996 14.7102 15.5996 13.9002C16.3496 13.1502 17.2996 12.6802 18.3396 12.5302C18.5096 12.5002 18.6896 12.5602 18.8196 12.6702Z"
            fill="#CACFEA" />
        <path
            d="M8.66 19.4702C8.83 19.6402 8.88 19.8802 8.8 20.1102C8.77 20.2002 8.72 20.2702 8.66 20.3302C8.56 20.4302 8.43 20.4902 8.29 20.5102L4 20.9102L2.75 22.1602C2.51 22.4002 2.13 22.4002 1.89 22.1602L0.18 20.4502C-0.06 20.2102 -0.06 19.8302 0.18 19.5902L1.43 18.3402L1.83 14.0502C1.85 13.8202 2.01 13.6102 2.23 13.5402C2.45 13.4602 2.7 13.5202 2.87 13.6802L8.67 19.4802L8.66 19.4702ZM9.64 17.1502C9.64 17.1502 9.62 17.1702 9.61 17.1802C9.5 17.2902 9.34 17.3602 9.18 17.3602H9.06C8.76 17.3602 8.5 17.1402 8.46 16.8402C8.35 16.0802 8 15.4002 7.46 14.8602C6.88 14.2802 6.14 13.9302 5.33 13.8402C5.02 13.8102 4.79 13.5502 4.79 13.2402V13.1302C4.79 12.9602 4.86 12.8002 4.99 12.6802C5.12 12.5602 5.29 12.5102 5.46 12.5302C6.58 12.6402 7.6 13.1302 8.41 13.9302C9.16 14.6802 9.63 15.6302 9.78 16.6702C9.81 16.8402 9.75 17.0202 9.64 17.1502Z"
            fill="#CACFEA" />
    </g>
    <defs>
        <clipPath id="clip0_5057_2625">
            <rect width="24" height="22.34" fill="white" />
        </clipPath>
    </defs>
</svg>