<svg width="14" height="14" viewBox="0 0 14 14" fill="none" xmlns="http://www.w3.org/2000/svg">
<g clip-path="url(#clip0_3122_230)">
<path d="M13.5268 2.75759L9.28485 6.99994L13.5268 11.2421C14.1577 11.8733 14.1577 12.8958 13.5268 13.527C13.2115 13.8422 12.7982 14 12.385 14C11.9712 14 11.5579 13.8425 11.2428 13.527L7.00001 9.28433L2.7575 13.5269C2.44228 13.8422 2.02891 13.9999 1.61542 13.9999C1.20205 13.9999 0.788965 13.8424 0.473464 13.5269C-0.1575 12.896 -0.1575 11.8735 0.473464 11.2421L4.71525 6.9999L0.473222 2.75759C-0.157741 2.12662 -0.157741 1.10392 0.473222 0.472952C1.10407 -0.157529 2.12617 -0.157529 2.75725 0.472952L6.99997 4.71531L11.2424 0.472952C11.8736 -0.157529 12.8958 -0.157529 13.5265 0.472952C14.1577 1.10392 14.1577 2.12662 13.5268 2.75759Z" fill="#CACFEA"/>
</g>
<defs>
<clipPath id="clip0_3122_230">
<rect width="14" height="14" fill="white"/>
</clipPath>
</defs>
</svg>
