<svg width="14" height="14" viewBox="0 0 14 14" fill="none" xmlns="http://www.w3.org/2000/svg">
<g clip-path="url(#clip0_3122_265)">
<path d="M7.37366 3.16162L1.37116 9.16412C1.14998 9.38572 1.01019 9.67557 0.974494 9.98662L0.735327 12.0866C0.719737 12.2343 0.735473 12.3836 0.781507 12.5248C0.827541 12.666 0.902838 12.7958 1.00248 12.9059C1.10212 13.016 1.22387 13.1039 1.35977 13.1637C1.49567 13.2236 1.64267 13.2541 1.79116 13.2533H1.91366L4.01366 13.0141C4.32347 12.9783 4.61269 12.8408 4.83616 12.6233L10.8387 6.61495L7.37366 3.16162Z" fill="#CACFEA"/>
<path d="M12.8689 2.65415L11.3464 1.13165C11.219 1.00378 11.0676 0.902313 10.901 0.833081C10.7343 0.763849 10.5556 0.72821 10.3751 0.72821C10.1946 0.72821 10.0159 0.763849 9.84925 0.833081C9.68258 0.902313 9.53122 1.00378 9.40385 1.13165L7.99219 2.54331L11.4572 6.00831L12.8689 4.59665C12.9967 4.46928 13.0982 4.31792 13.1674 4.15125C13.2367 3.98458 13.2723 3.80588 13.2723 3.6254C13.2723 3.44492 13.2367 3.26622 13.1674 3.09954C13.0982 2.93287 12.9967 2.78151 12.8689 2.65415Z" fill="#CACFEA"/>
</g>
<defs>
<clipPath id="clip0_3122_265">
<rect width="14" height="14" fill="white"/>
</clipPath>
</defs>
</svg>
