<svg width="24" height="24" viewBox="0 0 24 24" fill="none" xmlns="http://www.w3.org/2000/svg">
<path d="M12.2925 3.2775C12.225 3.165 12.12 3.0825 12 3.0375C11.8725 2.985 11.7375 2.985 11.61 3.0375C11.535 3.09 11.4675 3.15 11.4225 3.225L8.22 8.7075C8.1975 8.775 8.1975 8.8425 8.22 8.91C8.22 9.0225 8.265 9.135 8.3475 9.21C8.43 9.2925 8.535 9.3375 8.6475 9.3375H15.3675C15.42 9.3375 15.48 9.33 15.525 9.3075C15.5775 9.285 15.6225 9.255 15.66 9.2175C15.6975 9.18 15.7275 9.135 15.75 9.0825C15.7725 9.03 15.78 8.9775 15.78 8.925C15.795 8.85 15.795 8.775 15.78 8.7L12.285 3.2775H12.2925Z" fill="#CACFEA"/>
<path d="M11.7075 20.7525C11.7825 20.865 11.895 20.9475 12.0225 20.9775C12.09 21 12.1575 21 12.225 20.9925C12.2925 20.985 12.36 20.955 12.4125 20.9175C12.495 20.865 12.555 20.7825 12.5925 20.6925L15.78 15.3225C15.795 15.2625 15.795 15.195 15.78 15.135C15.78 15.015 15.735 14.9025 15.6525 14.82C15.57 14.7375 15.4575 14.6925 15.3375 14.6925H8.63249C8.55749 14.6925 8.48249 14.715 8.41499 14.7525C8.34749 14.79 8.29499 14.8425 8.25749 14.91C8.21999 14.9775 8.20499 15.0525 8.20499 15.1275C8.20499 15.2025 8.22749 15.2775 8.27249 15.3375L11.7 20.76L11.7075 20.7525Z" fill="#CACFEA"/>
</svg>
