<svg width="24" height="24" viewBox="0 0 24 24" fill="none" xmlns="http://www.w3.org/2000/svg">
<rect width="24" height="24"/>
<path d="M13.5 6.4575V17.5425C13.5 17.6475 13.635 17.73 13.7925 17.73H15.3975C15.5625 17.73 15.69 17.6475 15.69 17.5425V6.4575C15.69 6.3525 15.5625 6.27 15.3975 6.27H13.7925C13.6275 6.27 13.5 6.3525 13.5 6.4575Z" fill="#CACFEA"/>
<path d="M8.31 6.4575V17.5425C8.31 17.6475 8.445 17.73 8.6025 17.73H10.2075C10.3725 17.73 10.5 17.6475 10.5 17.5425V6.4575C10.5 6.3525 10.3725 6.27 10.2075 6.27H8.6025C8.4375 6.27 8.31 6.3525 8.31 6.4575Z" fill="#CACFEA"/>
</svg>
