<svg width="24" height="24" viewBox="0 0 24 24" fill="none" xmlns="http://www.w3.org/2000/svg">
<rect width="24" height="24"/>
<path d="M8.355 6.27H7.3425C7.2375 6.27 7.155 6.3525 7.155 6.4575V17.5425C7.155 17.6475 7.2375 17.73 7.3425 17.73H8.355C8.46 17.73 8.5425 17.6475 8.5425 17.5425V6.4575C8.5425 6.3525 8.46 6.27 8.355 6.27Z" fill="#CACFEA"/>
<path d="M10.425 11.9925C10.425 12.075 10.455 12.1575 10.515 12.225L16.4025 17.6625C16.4475 17.7075 16.515 17.73 16.575 17.73C16.65 17.73 16.725 17.6925 16.7775 17.64C16.8225 17.5875 16.845 17.52 16.845 17.4525V6.54749C16.845 6.49499 16.8225 6.44999 16.7925 6.40499C16.7625 6.36749 16.725 6.32999 16.68 6.30749C16.635 6.28499 16.5825 6.27749 16.53 6.28499C16.4775 6.28499 16.4325 6.30749 16.395 6.33749L10.5375 11.745C10.5375 11.745 10.4775 11.8125 10.455 11.85C10.4325 11.8875 10.425 11.9325 10.425 11.9775V11.9925Z" fill="#CACFEA"/>
</svg>
