<svg width="24" height="24" viewBox="0 0 24 24" fill="none" xmlns="http://www.w3.org/2000/svg">
    <path
        d="M12.0563 17.25C9.1301 17.25 6.80414 14.925 6.80414 12C6.80414 9.075 9.1301 6.75 12.0563 6.75C14.9825 6.75 17.3085 9.075 17.3085 12C17.3085 14.925 14.9825 17.25 12.0563 17.25ZM12.0563 8.25C9.95544 8.25 8.30476 9.9 8.30476 12C8.30476 14.1 9.95544 15.75 12.0563 15.75C14.1572 15.75 15.8079 14.1 15.8079 12C15.8079 9.9 14.1572 8.25 12.0563 8.25ZM12.2064 21C8.98004 21 5.67867 19.275 4.25309 16.5C4.02799 16.125 4.17806 15.675 4.55321 15.45C4.92837 15.225 5.37855 15.375 5.60364 15.75C6.57905 17.625 8.45482 18.9 10.7057 19.35C12.9567 19.8 15.1326 19.275 16.7833 17.85C17.0834 17.55 17.6086 17.625 17.8337 17.925C18.1338 18.225 18.0588 18.75 17.7587 18.975C16.183 20.325 14.2322 21 12.2064 21ZM19.1842 16.875C18.584 16.875 18.2088 16.2 18.509 15.75C19.6344 13.95 19.7845 11.7 19.0342 9.525C18.2839 7.35 16.7082 5.775 14.7574 5.025C14.3823 4.875 14.1572 4.425 14.3072 4.05C14.4573 3.675 14.9075 3.45 15.2826 3.6C17.6836 4.425 19.5594 6.45 20.4598 9C21.3601 11.55 21.1351 14.325 19.7845 16.5C19.7095 16.725 19.4844 16.875 19.1842 16.875ZM3.87793 14.025C3.50278 14.025 3.20265 13.8 3.12762 13.425C2.67744 10.875 3.42775 8.25 5.22849 6.15C7.02923 4.125 9.50525 3 12.0563 3C12.5065 3 12.8066 3.375 12.8066 3.75C12.8066 4.2 12.3564 4.575 11.9062 4.5C9.80538 4.5 7.77954 5.475 6.35395 7.125C4.92837 8.85 4.25309 11.025 4.62824 13.125C4.70327 13.575 4.40315 14.025 3.87793 14.025Z"
        fill="#62C0A4" />
</svg>
    